<?xml version="1.0" encoding="utf-8"?>
<!-- Generator: Adobe Illustrator 14.0.0, SVG Export Plug-In . SVG Version: 6.00 Build 43363)  -->
<!DOCTYPE svg PUBLIC "-//W3C//DTD SVG 1.1//EN" "http://www.w3.org/Graphics/SVG/1.1/DTD/svg11.dtd">
<svg version="1.1" id="Ebene_1" xmlns="http://www.w3.org/2000/svg" xmlns:xlink="http://www.w3.org/1999/xlink" x="0px" y="0px"
	 width="341.48px" height="424.115px" viewBox="250.705 85.683 341.48 424.115"
	 enable-background="new 250.705 85.683 341.48 424.115" xml:space="preserve">
<g>
	<path d="M345.805,210.558c7.367,26.196-0.714,51.385-0.714,51.385s-20.03-17.282-27.397-43.479
		c-5.791-20.593-2.043-40.503-0.171-48.104L296.14,85.683l24.735,83.733C326.437,174.932,340.014,189.971,345.805,210.558z"/>
</g>
<g>
	<path d="M357.34,471.434c19.797,27.007,50.223,38.364,50.223,38.364s-1.676-32.432-21.473-59.442
		c-14.969-20.415-35.983-31.878-45.36-36.26c-37.798-56.466-68.091-117.685-90.025-182.128l0.152,0.486
		c20.315,65.085,49.104,127.144,85.53,184.632C337.719,427.244,342.282,450.89,357.34,471.434z"/>
</g>
<g>
	<path d="M338.834,386.494c16.521,25.207,43.326,36.852,43.326,36.852s0.023-29.228-16.497-54.438
		c-12.485-19.054-30.835-30.345-39.06-34.729c-31.307-52.532-55.646-108.979-72.319-167.938l0.114,0.443
		c15.187,59.456,38.132,116.589,68.162,169.974C323.28,345.854,326.266,367.322,338.834,386.494z"/>
</g>
<g>
	<path d="M371.36,236.122c-6.566-54.731-13.263-83.501-33.836-134.753l-0.152-0.381c19.229,51.68,24.545,80.687,29.73,135.481
		c-3.643,7.553-10.967,25.506-9.905,45.983c1.4,27.087,16.953,48.303,16.953,48.303s13.282-22.705,11.882-49.794
		C384.966,260.357,375.727,243.18,371.36,236.122z"/>
</g>
<g>
	<path d="M319.371,299.707c12.926,23.851,36.099,36.298,36.099,36.298s2.214-26.211-10.711-50.061
		c-9.771-18.025-25.378-29.53-32.427-34.078c-24.14-49.466-34.722-76.991-45.25-131.119l0.067,0.404
		c9.162,54.461,18.443,82.502,41.374,132.634C308.469,262.095,309.542,281.569,319.371,299.707z"/>
</g>
<g>
	<path d="M409.248,433.127c-0.724,3.608-1.3,7.328-1.624,11.177c-2.813,33.369,12.663,61.919,12.663,61.919
		s20.043-25.55,22.86-58.919c0.395-4.695,0.428-9.291,0.193-13.729h-31.054C411.229,433.57,410.224,433.388,409.248,433.127z"/>
</g>
<g>
	<path d="M409.443,187.852l-0.124-0.495c12.525,55.913,18.716,112.96,18.707,170.103h4.443
		C431.025,300.326,423.387,243.437,409.443,187.852z"/>
</g>
<g>
	<path d="M412.287,357.464h2.268c-1.091-19.587-8.282-36.021-11.986-43.303c-2.2-61.214-12.406-121.933-30.436-180.585l-0.135-0.438
		c16.507,59.004,25.159,119.859,25.831,181.013c-4.733,8.023-14.506,27.226-15.229,49.999
		c-0.957,30.125,14.302,55.051,14.302,55.051s1.457-2.096,3.515-5.738v-44.122C400.415,362.788,405.738,357.464,412.287,357.464z"/>
</g>
<g>
	<polygon points="529.289,303.308 529.289,369.336 592.186,369.336 592.186,421.697 529.289,421.697 529.289,488.435 
		475.182,488.435 475.182,421.697 412.287,421.697 412.287,369.336 475.182,369.336 475.182,303.308 	"/>
</g>
</svg>
