<?xml version="1.0" encoding="utf-8"?>
<!-- Generator: Adobe Illustrator 14.0.0, SVG Export Plug-In . SVG Version: 6.00 Build 43363)  -->
<!DOCTYPE svg PUBLIC "-//W3C//DTD SVG 1.1//EN" "http://www.w3.org/Graphics/SVG/1.1/DTD/svg11.dtd">
<svg version="1.1" id="Ebene_1" xmlns="http://www.w3.org/2000/svg" xmlns:xlink="http://www.w3.org/1999/xlink" x="0px" y="0px"
	 width="476.225px" height="424.754px" viewBox="182.832 85.735 476.225 424.754"
	 enable-background="new 182.832 85.735 476.225 424.754" xml:space="preserve">
<title>6 enzymatic</title>
<path d="M524.096,446.84c4.107,0,7.439-3.332,7.439-7.441V393.16c0-2.658-1.418-5.115-3.721-6.444l-40.041-23.122
	c-3.559-2.055-8.109-0.835-10.164,2.725c-2.055,3.559-0.836,8.109,2.725,10.165l0,0l36.32,20.974v41.942
	C516.654,443.508,519.986,446.84,524.096,446.84z"/>
<path d="M355.6,134.606l58.646,33.855v44.497c0,4.109,3.332,7.44,7.442,7.44c4.109,0,7.439-3.331,7.439-7.44v-44.494l58.646-33.856
	c3.545-2.078,4.734-6.637,2.656-10.182c-2.061-3.514-6.559-4.719-10.098-2.706l-58.646,33.855l-58.647-33.855
	c-3.571-2.031-8.114-0.781-10.146,2.791c-2.012,3.539-0.807,8.037,2.706,10.097L355.6,134.606L355.6,134.606z"/>
<path d="M454.291,331.372c0,4.109,3.33,7.441,7.441,7.441c4.109,0,7.439-3.332,7.439-7.441v-46.237c0-2.658-1.418-5.114-3.721-6.444
	l-40.043-23.119c-3.572-2.031-8.114-0.781-10.145,2.791c-2.013,3.539-0.809,8.038,2.705,10.098l36.323,20.972V331.372z"/>
<path d="M605.066,337.817l-58.648,33.855l-54.922-31.705v-67.723c0-2.658-1.418-5.115-3.721-6.443l-62.365-36.008
	c-2.303-1.329-5.14-1.329-7.441,0l-62.366,36.008c-2.303,1.328-3.721,3.785-3.721,6.443v67.723l-54.927,31.712l-58.646-33.856
	c-3.56-2.055-8.11-0.835-10.165,2.725s-0.835,8.109,2.724,10.164l58.646,33.856v67.719c-0.004,4.109,3.324,7.444,7.434,7.448
	c4.11,0.004,7.444-3.324,7.448-7.434c0-0.005,0-0.011,0-0.016v-67.72l54.926-31.711l54.927,31.711v11.121
	c0.007,4.108,3.343,7.437,7.451,7.431c4.104-0.006,7.426-3.329,7.432-7.431v-11.121l54.926-31.711l54.922,31.711v63.423
	L484.055,479.7l-54.924-31.71v-29.285c0-4.108-3.332-7.439-7.441-7.439c-4.109,0-7.441,3.331-7.441,7.439v33.578
	c0,2.658,1.418,5.114,3.722,6.443l62.366,36.015c2.303,1.329,5.139,1.329,7.439,0l62.365-36.011
	c2.301-1.329,3.721-3.786,3.721-6.444v-67.722l58.646-33.856c3.545-2.079,4.732-6.638,2.654-10.183
	c-2.059-3.512-6.559-4.717-10.096-2.705V337.817z M366.762,276.541l54.927-31.711l54.926,31.711v63.427l-54.926,31.707
	l-54.927-31.707V276.541z"/>
<path d="M516.625,130.126c12.26,0,22.195-9.938,22.195-22.195c0-12.259-9.936-22.195-22.195-22.195
	c-12.258,0-22.193,9.938-22.193,22.195c0,0.001,0,0.001,0,0.001C494.445,120.184,504.373,130.112,516.625,130.126z M516.625,100.617
	c4.039,0,7.314,3.274,7.314,7.313s-3.275,7.313-7.314,7.313c-4.037,0-7.313-3.273-7.313-7.313
	C509.316,103.894,512.59,100.621,516.625,100.617z"/>
<path d="M330.292,130.126c12.26,0,22.196-9.938,22.196-22.195c0-12.259-9.938-22.195-22.196-22.195
	c-12.258,0-22.194,9.938-22.194,22.195c0,0.001,0,0.001,0,0.001C308.111,120.184,318.04,130.112,330.292,130.126z M330.292,100.617
	c4.04,0,7.314,3.274,7.314,7.313s-3.274,7.313-7.314,7.313c-4.038,0-7.313-3.273-7.313-7.313
	C322.983,103.894,326.255,100.621,330.292,100.617z"/>
<path d="M205.028,304.735c-12.259,0-22.196,9.938-22.196,22.195c0,12.259,9.938,22.195,22.196,22.195
	c12.258,0,22.195-9.938,22.195-22.195C227.21,314.678,217.28,304.748,205.028,304.735z M205.028,334.242
	c-4.04,0-7.314-3.273-7.314-7.313s3.274-7.313,7.314-7.313c4.039,0,7.313,3.274,7.313,7.313c0,0.001,0,0.001,0,0.001
	C212.337,330.967,209.065,334.239,205.028,334.242z"/>
<path d="M636.861,304.735c-12.258-0.001-22.195,9.937-22.195,22.194c-0.002,12.259,9.938,22.195,22.193,22.196
	c12.26,0,22.197-9.937,22.197-22.194c0,0,0,0,0-0.001C659.043,314.678,649.113,304.749,636.861,304.735z M636.861,334.242
	c-4.039,0.001-7.313-3.272-7.313-7.312s3.271-7.313,7.311-7.314c4.039,0,7.314,3.273,7.314,7.313c0,0.001,0,0.002,0,0.002
	C644.17,330.967,640.898,334.238,636.861,334.242z"/>
<path d="M294.423,466.098c-12.258,0-22.195,9.937-22.196,22.195c0,12.258,9.937,22.194,22.194,22.195
	c12.259,0,22.196-9.937,22.197-22.194v-0.001C316.603,476.041,306.675,466.113,294.423,466.098z M294.423,495.607
	c-4.039,0-7.313-3.273-7.314-7.313c0-4.039,3.273-7.313,7.312-7.314c4.04,0,7.314,3.273,7.314,7.313c0,0,0,0,0,0.001
	C301.731,492.329,298.46,495.601,294.423,495.607z"/>
</svg>
