<?xml version="1.0" encoding="utf-8"?>
<!-- Generator: Adobe Illustrator 14.0.0, SVG Export Plug-In . SVG Version: 6.00 Build 43363)  -->
<!DOCTYPE svg PUBLIC "-//W3C//DTD SVG 1.1//EN" "http://www.w3.org/Graphics/SVG/1.1/DTD/svg11.dtd">
<svg version="1.1" id="Ebene_1" xmlns="http://www.w3.org/2000/svg" xmlns:xlink="http://www.w3.org/1999/xlink" x="0px" y="0px"
	 width="841.891px" height="595.279px" viewBox="0 0 841.891 595.279" enable-background="new 0 0 841.891 595.279"
	 xml:space="preserve">
<path d="M304.265,202.169c29.99,0,54.394-24.403,54.394-54.387c0-29.99-24.403-54.394-54.394-54.394s-54.394,24.404-54.394,54.394
	S274.275,202.169,304.265,202.169z M304.265,112.286c19.571,0,35.496,15.924,35.496,35.496s-15.925,35.489-35.496,35.489
	c-19.573,0-35.496-15.918-35.496-35.489S284.692,112.286,304.265,112.286z"/>
<path d="M586.733,326.546l10.274-10.272c7.225-7.227,7.219-18.986,0-26.212l-15.351-15.351c-7.227-7.225-18.986-7.225-26.211,0
	l-10.274,10.275c-5.656-3.024-11.598-5.481-17.777-7.352v-14.501c0-10.236-8.321-18.557-18.55-18.557h-21.651
	c-10.235,0-18.557,8.321-18.557,18.557v14.501c-6.18,1.871-12.119,4.328-17.777,7.352l-10.273-10.275
	c-7.226-7.218-18.992-7.225-26.21,0l-15.352,15.351c-7.225,7.226-7.225,18.986,0,26.217l10.274,10.268
	c-3.024,5.657-5.481,11.604-7.352,17.777h-14.5c-10.237,0-18.559,8.321-18.559,18.558v21.65c0,10.229,8.321,18.551,18.559,18.551
	h14.5c1.871,6.18,4.327,12.119,7.352,17.775l-10.274,10.274c-7.225,7.227-7.225,18.986,0,26.211l15.352,15.353
	c3.496,3.502,8.151,5.423,13.109,5.423c4.957,0,9.611-1.928,13.108-5.423l10.267-10.274c5.658,3.023,11.598,5.479,17.777,7.351
	v14.502c0,10.235,8.321,18.557,18.557,18.557h21.651c10.229,0,18.55-8.321,18.55-18.557v-14.502
	c6.18-1.871,12.127-4.327,17.784-7.351l10.268,10.268c3.495,3.502,8.151,5.423,13.108,5.423c4.958,0,9.612-1.927,13.109-5.423
	l15.351-15.353c7.225-7.225,7.225-18.984,0-26.21l-10.274-10.273c3.023-5.658,5.48-11.598,7.352-17.783h14.501
	c10.235,0,18.557-8.321,18.557-18.551v-21.651c0-10.235-8.321-18.557-18.557-18.557h-14.501
	C592.215,338.144,589.763,332.203,586.733,326.546z M608.593,384.186h-21.595c-0.013,0-0.018,0-0.03,0h-0.127
	c-0.195,0-0.377,0.044-0.567,0.055c-0.421,0.026-0.843,0.046-1.253,0.127c-0.265,0.051-0.51,0.145-0.769,0.221
	c-0.328,0.095-0.661,0.176-0.977,0.303c-0.289,0.118-0.548,0.276-0.825,0.421c-0.265,0.14-0.528,0.259-0.78,0.423
	c-0.265,0.17-0.498,0.378-0.744,0.579c-0.226,0.183-0.466,0.354-0.674,0.562c-0.227,0.221-0.415,0.466-0.616,0.711
	c-0.19,0.227-0.392,0.435-0.561,0.675c-0.202,0.289-0.354,0.604-0.523,0.913c-0.12,0.226-0.265,0.44-0.365,0.68
	c-0.171,0.392-0.284,0.806-0.403,1.222c-0.051,0.177-0.133,0.335-0.171,0.517c-2.041,9.229-5.625,17.885-10.645,25.72
	c-0.296,0.46-0.517,0.939-0.725,1.424c-0.026,0.063-0.07,0.12-0.095,0.184c-0.436,1.082-0.637,2.217-0.648,3.344
	c0,0.075-0.02,0.139-0.013,0.215c0.006,1.14,0.239,2.267,0.648,3.331c0.025,0.076,0.037,0.146,0.069,0.221
	c0.46,1.108,1.128,2.129,1.997,3.005c0.019,0.02,0.024,0.044,0.038,0.063l0.057,0.057c0.018,0.02,0.037,0.038,0.057,0.057
	l15.288,14.784l-14.841,15.352L553.5,444.046c-0.014-0.013-0.032-0.031-0.044-0.044l-0.063-0.063c-0.02-0.02-0.037-0.02-0.051-0.037
	c-0.882-0.87-1.902-1.544-3.011-2.004c-0.076-0.031-0.145-0.044-0.221-0.069c-1.058-0.41-2.18-0.636-3.32-0.648
	c-0.081,0-0.157,0.019-0.238,0.019c-1.121,0.019-2.243,0.215-3.326,0.648c-0.068,0.026-0.126,0.07-0.195,0.102
	c-0.479,0.201-0.957,0.422-1.411,0.718c-7.837,5.021-16.491,8.604-25.72,10.646c-0.189,0.045-0.353,0.126-0.536,0.177
	c-0.409,0.113-0.812,0.226-1.195,0.396c-0.259,0.113-0.486,0.259-0.725,0.391c-0.296,0.164-0.599,0.309-0.87,0.498
	c-0.252,0.176-0.466,0.384-0.698,0.579c-0.234,0.196-0.479,0.378-0.688,0.599c-0.201,0.208-0.372,0.447-0.554,0.674
	c-0.202,0.246-0.41,0.485-0.587,0.75c-0.151,0.232-0.264,0.491-0.396,0.736c-0.157,0.291-0.321,0.567-0.447,0.876
	c-0.113,0.284-0.182,0.58-0.271,0.876c-0.087,0.289-0.194,0.573-0.251,0.876c-0.07,0.371-0.088,0.749-0.114,1.134
	c-0.018,0.226-0.068,0.44-0.068,0.673v0.12c0,0.013,0,0.031,0,0.044l0.34,21.241l-21.304,0.34v-21.75
	c0-0.234-0.05-0.448-0.069-0.675c-0.026-0.378-0.044-0.762-0.113-1.134c-0.058-0.303-0.164-0.587-0.252-0.876
	c-0.088-0.296-0.158-0.592-0.271-0.876c-0.126-0.309-0.289-0.585-0.447-0.876c-0.132-0.245-0.245-0.503-0.396-0.736
	c-0.177-0.265-0.384-0.503-0.586-0.749c-0.183-0.228-0.354-0.46-0.555-0.674c-0.213-0.221-0.453-0.403-0.686-0.599
	c-0.234-0.196-0.447-0.404-0.7-0.58c-0.276-0.188-0.579-0.334-0.868-0.497c-0.24-0.133-0.467-0.284-0.725-0.392
	c-0.385-0.164-0.788-0.276-1.197-0.396c-0.183-0.05-0.347-0.132-0.535-0.176c-9.229-2.04-17.878-5.625-25.72-10.646
	c-0.46-0.295-0.945-0.517-1.43-0.725c-0.063-0.024-0.114-0.062-0.178-0.088c-1.095-0.44-2.235-0.642-3.376-0.654
	c-0.062,0-0.112-0.013-0.176-0.013c-1.153,0.006-2.293,0.24-3.37,0.654c-0.063,0.026-0.12,0.032-0.183,0.057
	c-1.109,0.46-2.137,1.135-3.018,2.011c-0.019,0.018-0.038,0.018-0.057,0.037l-0.05,0.057c-0.02,0.02-0.044,0.044-0.063,0.063
	l-14.777,15.288l-15.352-14.841l15.308-15.308c0.012-0.013,0.018-0.02,0.03-0.031l0.07-0.069c0.018-0.02,0.024-0.044,0.037-0.057
	c0.869-0.883,1.544-1.903,1.997-3.005c0.031-0.069,0.044-0.145,0.068-0.215c0.41-1.063,0.644-2.191,0.65-3.331
	c0-0.069-0.014-0.14-0.014-0.208c-0.019-1.134-0.221-2.269-0.654-3.358c-0.026-0.062-0.063-0.112-0.09-0.176
	c-0.206-0.485-0.427-0.97-0.723-1.423c-5.027-7.849-8.612-16.499-10.647-25.721c-0.05-0.214-0.138-0.402-0.201-0.617
	c-0.114-0.378-0.214-0.762-0.371-1.121c-0.107-0.239-0.247-0.453-0.365-0.681c-0.17-0.315-0.328-0.636-0.536-0.932
	c-0.145-0.214-0.327-0.396-0.491-0.593c-0.228-0.27-0.44-0.554-0.694-0.8c-0.176-0.17-0.371-0.309-0.561-0.46
	c-0.283-0.232-0.554-0.473-0.863-0.674c-0.208-0.139-0.434-0.232-0.655-0.353c-0.309-0.169-0.611-0.347-0.944-0.479
	c-0.297-0.12-0.617-0.196-0.926-0.29c-0.271-0.075-0.53-0.176-0.806-0.232c-0.448-0.088-0.908-0.114-1.373-0.139
	c-0.151-0.006-0.291-0.045-0.442-0.045h-0.075c-0.044,0-0.094,0-0.14,0l-21.196,0.341l-0.34-21.305h21.732c0.005,0,0.018,0,0.024,0
	c0.02,0,0.038-0.012,0.057-0.012c0.977-0.006,1.896-0.196,2.784-0.479c0.158-0.05,0.309-0.088,0.459-0.145
	c0.858-0.321,1.651-0.769,2.369-1.31c0.138-0.102,0.258-0.215,0.39-0.321c0.706-0.599,1.342-1.272,1.853-2.054
	c0.057-0.088,0.094-0.189,0.151-0.283c0.498-0.825,0.882-1.728,1.108-2.69c0.013-0.044,0.039-0.075,0.05-0.119
	c2.035-9.217,5.62-17.871,10.647-25.72c0.296-0.46,0.517-0.939,0.723-1.431c0.026-0.062,0.063-0.113,0.09-0.17
	c0.434-1.09,0.636-2.224,0.654-3.357c0-0.069,0.014-0.138,0.014-0.208c-0.007-1.146-0.24-2.273-0.65-3.339
	c-0.024-0.068-0.037-0.139-0.068-0.207c-0.46-1.109-1.134-2.13-2.003-3.011c-0.02-0.02-0.02-0.039-0.038-0.057l-0.057-0.051
	c-0.025-0.02-0.044-0.045-0.069-0.063l-15.282-14.777l14.84-15.352l15.402,15.403c0.037,0.037,0.081,0.044,0.12,0.081
	c0.806,0.781,1.726,1.366,2.72,1.808c0.234,0.102,0.454,0.183,0.694,0.265c1.007,0.358,2.052,0.604,3.123,0.61
	c0.007,0,0.02,0,0.025,0h0.007c1.064,0,2.122-0.245,3.156-0.617c0.302-0.105,0.573-0.252,0.869-0.396
	c0.353-0.169,0.725-0.265,1.064-0.484c7.849-5.027,16.504-8.612,25.72-10.646c0.228-0.05,0.429-0.151,0.648-0.213
	c0.365-0.107,0.73-0.201,1.077-0.354c0.277-0.119,0.523-0.283,0.781-0.428c0.276-0.151,0.561-0.29,0.812-0.466
	c0.265-0.182,0.491-0.396,0.731-0.604c0.22-0.188,0.46-0.366,0.661-0.574c0.208-0.214,0.384-0.46,0.572-0.692
	c0.196-0.24,0.398-0.466,0.567-0.725c0.157-0.246,0.277-0.504,0.416-0.762c0.151-0.277,0.309-0.547,0.435-0.845
	c0.119-0.302,0.195-0.617,0.29-0.925c0.081-0.271,0.182-0.536,0.232-0.819c0.083-0.404,0.101-0.826,0.126-1.242
	c0.014-0.195,0.058-0.378,0.058-0.573v-0.094c0-0.026,0-0.057,0-0.082l-0.335-21.229l21.305-0.341v21.601c0,0.013,0,0.024,0,0.037
	v0.114c0,0.195,0.044,0.378,0.057,0.574c0.024,0.416,0.044,0.837,0.126,1.24c0.057,0.284,0.157,0.549,0.233,0.819
	c0.095,0.309,0.163,0.631,0.289,0.926c0.12,0.296,0.283,0.567,0.435,0.845c0.14,0.258,0.258,0.521,0.416,0.762
	c0.17,0.258,0.372,0.484,0.566,0.724c0.188,0.234,0.366,0.479,0.574,0.693c0.201,0.208,0.44,0.384,0.661,0.574
	c0.239,0.208,0.466,0.421,0.731,0.604c0.258,0.176,0.541,0.315,0.812,0.466c0.258,0.145,0.51,0.302,0.78,0.428
	c0.347,0.151,0.711,0.245,1.077,0.353c0.221,0.063,0.422,0.164,0.649,0.214c9.222,2.035,17.87,5.619,25.719,10.647
	c0.341,0.213,0.712,0.313,1.064,0.478c0.297,0.139,0.566,0.284,0.87,0.396c1.032,0.372,2.09,0.617,3.156,0.617h0.006
	c0.006,0,0.012,0,0.019,0c1.077,0,2.123-0.252,3.138-0.61c0.232-0.082,0.453-0.164,0.68-0.265c0.995-0.441,1.922-1.032,2.728-1.814
	c0.038-0.037,0.082-0.044,0.12-0.081l14.892-15.403l15.351,14.842l-15.313,15.312l-0.006,0.006l-0.082,0.083
	c-0.02,0.019-0.025,0.051-0.045,0.068c-0.863,0.876-1.537,1.896-1.99,2.993c-0.031,0.075-0.044,0.145-0.069,0.22
	c-0.409,1.065-0.637,2.187-0.648,3.326c0,0.076,0.012,0.138,0.012,0.214c0.02,1.128,0.222,2.263,0.65,3.352
	c0.024,0.062,0.062,0.12,0.094,0.183c0.208,0.485,0.428,0.964,0.724,1.424c5.021,7.842,8.605,16.492,10.646,25.72
	c0.007,0.038,0.031,0.063,0.037,0.101c0.228,0.977,0.618,1.891,1.121,2.721c0.051,0.089,0.088,0.184,0.146,0.265
	c0.51,0.782,1.146,1.463,1.852,2.061c0.127,0.107,0.252,0.215,0.384,0.315c0.719,0.548,1.513,0.988,2.369,1.31
	c0.151,0.057,0.303,0.095,0.46,0.145c0.882,0.284,1.808,0.473,2.784,0.479c0.019,0,0.038,0.013,0.057,0.013
	c0.013,0,0.02-0.006,0.032-0.006l21.385-0.342L608.593,384.186z"/>
<path d="M498.015,311.984c-34.035,0-61.726,27.691-61.726,61.726c0,34.035,27.69,61.72,61.726,61.72s61.72-27.691,61.72-61.72
	C559.741,339.668,532.051,311.984,498.015,311.984z M498.015,416.531c-23.615,0-42.828-19.212-42.828-42.821
	c0-23.615,19.213-42.829,42.828-42.829s42.822,19.214,42.822,42.829C540.844,397.319,521.631,416.531,498.015,416.531z"/>
<path d="M435.861,257.898c13.209-0.006,23.956-10.778,23.956-24.327c0-13.266-10.765-24.064-24-24.064h-90.904h-81.323
	c-19.987,0-36.245,16.259-36.245,36.247v81.543c0,15.685,9.883,29.134,24.056,34.134v79.03c0,19.774,16.088,35.861,35.861,35.861
	h33.978c19.805,0,35.918-16.087,35.918-35.861V353.93v-95.994L435.861,257.898z M338.262,440.461
	c0,9.354-7.635,16.965-17.021,16.965h-33.978c-9.355,0-16.963-7.61-16.963-16.965V353.93c0-4.851-3.672-8.914-8.498-9.398
	c-8.869-0.901-15.559-8.309-15.559-17.234v-81.543c0-9.569,7.787-17.348,17.348-17.348h81.323h90.91c2.81,0,5.103,2.317,5.103,5.499
	c0,2.81-2.273,5.102-5.071,5.102l-88.145,0.038l0,0c-5.215,0-9.448,4.233-9.448,9.449V353.93V440.461z"/>
<path d="M420.945,14.647c-156.303,0-283.465,127.163-283.465,283.466c0,156.301,127.162,283.463,283.465,283.463
	c156.302,0,283.465-127.162,283.465-283.463C704.41,141.81,577.247,14.647,420.945,14.647z M420.945,562.679
	c-145.884,0-264.568-118.684-264.568-264.566c0-145.884,118.684-264.568,264.568-264.568c145.883,0,264.566,118.684,264.566,264.568
	C685.511,443.995,566.828,562.679,420.945,562.679z"/>
</svg>
