<?xml version="1.0" encoding="utf-8"?>
<!-- Generator: Adobe Illustrator 14.0.0, SVG Export Plug-In . SVG Version: 6.00 Build 43363)  -->
<!DOCTYPE svg PUBLIC "-//W3C//DTD SVG 1.1//EN" "http://www.w3.org/Graphics/SVG/1.1/DTD/svg11.dtd">
<svg version="1.1" id="Ebene_1" xmlns="http://www.w3.org/2000/svg" xmlns:xlink="http://www.w3.org/1999/xlink" x="0px" y="0px"
	 width="428.602px" height="313.354px" viewBox="206.644 141.434 428.602 313.354"
	 enable-background="new 206.644 141.434 428.602 313.354" xml:space="preserve">
<path d="M320.462,415.263c-0.952,0-1.905,0-2.857-0.478l-110.96-55.718v11.905l113.817,57.146l314.784-157.154v-11.904
	L323.319,414.786C322.367,415.263,321.414,415.263,320.462,415.263z"/>
<path d="M320.462,388.594c-0.952,0-1.905,0-2.857-0.477L206.645,332.4v11.905l113.817,57.146l314.784-157.153v-11.905
	l-311.927,155.25C322.367,388.118,321.414,388.594,320.462,388.594z"/>
<path d="M320.462,441.932c-0.952,0-1.905,0-2.857-0.478l-110.96-55.718v11.905l113.817,57.146l314.784-157.152V285.73
	L323.319,441.455C322.367,441.932,321.414,441.932,320.462,441.932z"/>
<path d="M323.319,360.974C323.319,360.974,322.843,360.974,323.319,360.974c-0.952,0.476-1.905,0.476-2.856,0.476
	c-0.952,0-1.43,0-2.382-0.476h-0.477c0,0,0,0-0.477,0l-110.483-55.242v11.905l113.817,57.146l314.783-157.631v-11.905
	L323.319,360.974L323.319,360.974z"/>
<polygon points="528.096,144.768 521.428,141.434 488.094,158.102 488.094,263.823 528.096,243.823 "/>
<polygon points="367.608,218.582 327.129,238.584 327.129,344.306 367.608,324.304 "/>
<polygon points="595.242,178.579 595.242,210.487 627.15,194.295 "/>
<polygon points="313.795,245.251 273.792,265.252 273.792,324.304 313.795,344.306 "/>
<polygon points="420.945,191.914 380.942,211.915 380.942,317.637 420.945,297.159 "/>
<polygon points="260.458,271.92 214.74,294.779 260.458,317.637 "/>
<polygon points="581.908,171.437 541.43,151.435 541.43,237.156 581.908,217.154 "/>
<polygon points="474.76,164.77 434.279,185.247 434.279,290.492 474.76,270.491 "/>
</svg>
