<?xml version="1.0" encoding="utf-8"?>
<!-- Generator: Adobe Illustrator 14.0.0, SVG Export Plug-In . SVG Version: 6.00 Build 43363)  -->
<!DOCTYPE svg PUBLIC "-//W3C//DTD SVG 1.1//EN" "http://www.w3.org/Graphics/SVG/1.1/DTD/svg11.dtd">
<svg version="1.1" id="Ebene_1" xmlns="http://www.w3.org/2000/svg" xmlns:xlink="http://www.w3.org/1999/xlink" x="0px" y="0px"
	 width="841.891px" height="595.279px" viewBox="0 0 841.891 595.279" enable-background="new 0 0 841.891 595.279"
	 xml:space="preserve">
<g>
	<circle cx="467.32" cy="134.943" r="10.761"/>
	<circle cx="402.566" cy="134.943" r="10.761"/>
	<circle cx="434.943" cy="113.422" r="10.76"/>
	<path d="M517.409,351.391h-23.712c-9.998,0-19.33,2.476-27.71,6.761c0.856-4.095,1.333-8.38,1.333-12.665
		c0-16.093-6.285-31.329-17.712-42.661l-16.76-16.76c-3.714-3.714-9.714-3.714-13.427,0l-16.76,16.76
		c-11.428,11.428-17.712,26.568-17.712,42.661c0,4.285,0.476,8.476,1.333,12.665c-8.285-4.285-17.617-6.665-27.521-6.665h-23.711
		c-5.237,0-9.522,4.285-9.522,9.522v23.711c0,33.329,27.044,60.373,60.373,60.373h23.711c5.237,0,9.522-4.285,9.522-9.522v-23.712
		c0-2.57-0.19-5.142-0.571-7.617l0.762,0.762c1.904,1.904,4.285,2.761,6.761,2.761c2.477,0,4.856-0.952,6.762-2.761l0.952-0.952
		c-0.286,2.57-0.571,5.142-0.571,7.808v23.712c0,5.237,4.285,9.522,9.522,9.522h23.711c33.329,0,60.373-27.044,60.373-60.373
		v-23.807C526.931,355.581,522.646,351.391,517.409,351.391z M400.091,425.952h-14.188c-22.759,0-41.328-18.569-41.328-41.328
		v-14.188h14.188c22.759,0,41.328,18.569,41.328,41.328V425.952z M426.182,384.72l-9.999-9.999
		c-7.809-7.809-12.094-18.188-12.094-29.234c0-11.046,4.285-21.426,12.094-29.234l9.999-9.998l9.999,9.998
		c7.808,7.809,12.093,18.188,12.093,29.234c0,11.047-4.285,21.426-12.093,29.234L426.182,384.72z M507.886,384.624
		c0,22.759-18.569,41.328-41.328,41.328h-14.189v-14.188c0-22.759,18.569-41.328,41.328-41.328h14.189V384.624z"/>
	<path d="M652.153,485.85l-26.759-26.759c0-0.857-0.095-1.714-0.19-2.571l-25.711-212.258c11.522-2.952,19.808-11.236,19.808-21.331
		v-1.904c0-26.282-26.188-49.612-58.755-55.04c-10.569-18.283-59.706-95.798-143.124-105.892L416.183,60l-1.143,0.095
		c-83.037,10.094-132.173,86.941-143.029,105.701c-33.328,4.856-60.468,28.567-60.468,55.23v1.904
		c0,11.713,10.951,20.95,25.425,22.283L216.4,456.996c-0.096,0.762-0.096,1.523-0.19,2.285l-26.568,26.568
		c-6.761,6.761-8.761,16.569-5.047,25.33c4.095,9.808,13.713,15.712,24.854,14.188l49.517-7.047c0.477,0.19,0.953,0.286,1.524,0.381
		c52.184,11.617,105.7,17.427,159.122,17.427c50.66,0,101.511-5.333,151.123-15.713l9.808-2.095c0.382-0.095,0.667-0.19,1.048-0.286
		l50.851,7.237c1.143,0.19,2.285,0.286,3.429,0.286c9.332,0,17.807-5.618,21.426-14.475
		C660.914,502.323,659.01,492.611,652.153,485.85z M416.183,79.14c61.802,7.999,103.892,60.184,121.032,85.608H295.152
		C312.197,139.323,354.192,87.235,416.183,79.14z M230.684,222.931v-1.904c0-17.141,23.425-37.138,53.707-37.138h262.062
		c30.281,0,53.707,19.997,53.707,37.138v1.714c-0.19,0.667-1.904,1.905-4.476,2.762l-79.608,11.713
		c-4.667,0.667-10.095,1.333-15.998,1.81c-22.379,2.095-52.66,3.333-85.132,3.333c-42.852,0-82.18-2.096-105.415-5.618
		l-70.753-10.761v0.19C233.922,225.788,230.969,223.694,230.684,222.931z M639.678,503.943c-0.286,0.666-1.048,2.476-4.571,2.666
		l-54.945-7.809l-1.904,0.477c-0.571,0.19-1.143,0.381-1.714,0.571l-9.809,2.095c-99.225,20.854-202.83,20.474-302.531-1.81
		c-0.572-0.19-1.144-0.381-1.715-0.571l-1.999-0.571l-54.47,7.618c-2.476,0-3.523-2-3.809-2.666
		c-0.477-1.143-0.762-2.952,0.952-4.571l32.091-32.091v-5.428c0-0.857,0-1.714,0.096-2.762l20.568-211.115l50.851,7.713
		c23.997,3.619,64.468,5.904,108.177,5.904c35.899,0,68.372-1.429,91.893-3.999c4.285-0.477,8.38-0.953,12.094-1.524l61.802-9.046
		l25.711,211.687c0.095,0.952,0.095,1.904,0.095,2.762v5.522l32.377,32.377C640.345,500.99,640.155,502.704,639.678,503.943z"/>
</g>
</svg>
