<?xml version="1.0" encoding="utf-8"?>
<!-- Generator: Adobe Illustrator 14.0.0, SVG Export Plug-In . SVG Version: 6.00 Build 43363)  -->
<!DOCTYPE svg PUBLIC "-//W3C//DTD SVG 1.1//EN" "http://www.w3.org/Graphics/SVG/1.1/DTD/svg11.dtd">
<svg version="1.1" id="Ebene_1" xmlns="http://www.w3.org/2000/svg" xmlns:xlink="http://www.w3.org/1999/xlink" x="0px" y="0px"
	 width="841.891px" height="595.279px" viewBox="0 0 841.891 595.279" enable-background="new 0 0 841.891 595.279"
	 xml:space="preserve">
<title>Research</title>
<g>
	<path d="M288.448,303.214c-31.355,0-56.774-25.419-56.774-56.775c0-31.355,25.419-56.774,56.774-56.774
		s56.774,25.419,56.774,56.774C345.181,277.778,319.787,303.173,288.448,303.214z M288.448,204.546
		c-23.137,0-41.893,18.756-41.893,41.893s18.756,41.893,41.893,41.893s41.893-18.756,41.893-41.893l0,0
		C330.3,223.319,311.568,204.587,288.448,204.546z"/>
	<path d="M358.468,485.89h-17.933c-1.459-0.011-2.882-0.451-4.093-1.265l-52.459-35.196c-3.429-2.266-4.371-6.882-2.104-10.311
		c0.007-0.011,0.014-0.021,0.021-0.032c2.294-3.369,6.873-4.266,10.269-2.009l50.971,33.931h15.328c4.109,0,7.441,3.332,7.441,7.441
		S362.577,485.89,358.468,485.89L358.468,485.89z"/>
	<path d="M217.684,485.89c-4.109,0-7.441-3.331-7.441-7.44V374.275c0.041-24.146,19.606-43.712,43.753-43.753h16.52
		c13.351-0.068,25.995,5.993,34.303,16.445l57.222,72.624h10.343c4.109,0,7.441,3.331,7.441,7.44s-3.332,7.441-7.441,7.441h-13.915
		c-2.29,0.013-4.458-1.031-5.878-2.828l-59.528-75.525c-5.388-6.863-13.598-10.914-22.323-11.013h-16.742
		c-15.944,0-28.871,12.926-28.871,28.871l0,0v104.174c0.165,4.106-3.031,7.568-7.137,7.732
		C217.886,485.888,217.785,485.89,217.684,485.89z"/>
	<path d="M599.853,485.89H318.212c-4.109,0-7.44-3.331-7.44-7.44c0-4.11,3.331-7.441,7.44-7.441h281.642
		c4.11,0,7.441,3.331,7.441,7.441C607.295,482.559,603.964,485.89,599.853,485.89z"/>
	<path d="M517.556,485.89h-79.173c-4.109,0-7.44-3.331-7.44-7.44c0-4.11,3.331-7.441,7.44-7.441
		c10.027,0,18.156-8.129,18.156-18.156c0-0.024,0-0.049,0-0.074c0.041-10.068-8.087-18.264-18.155-18.305c0,0,0,0-0.001,0h-66.001
		c-2.303-0.006-4.474-1.077-5.879-2.902c-1.407-1.843-1.875-4.236-1.265-6.474l14.882-53.947c0.898-3.343,3.982-5.625,7.441-5.506
		h158.642c2.329-0.018,4.532,1.056,5.953,2.901c1.407,1.843,1.875,4.237,1.265,6.474L524.7,480.384
		C523.829,483.617,520.905,485.871,517.556,485.89z M466.064,471.008h45.613l24.63-90.482H392.622l-10.715,39.065h56.254
		c18.41,0.179,33.188,15.248,33.01,33.658c-0.062,6.305-1.909,12.462-5.329,17.759H466.064z"/>
	<path d="M385.181,304.553c-1.979,0.012-3.879-0.765-5.283-2.158c-2.918-2.894-2.938-7.604-0.043-10.522
		c0.014-0.015,0.028-0.029,0.043-0.043l89.292-89.292c2.284-2.267,5.767-2.807,8.631-1.34l53.947,26.937l85.572-114.07
		c2.469-3.285,7.134-3.947,10.419-1.478c3.28,2.465,3.945,7.121,1.486,10.406l-89.292,119.057c-2.17,2.876-6.087,3.784-9.302,2.157
		l-54.691-27.309l-85.496,85.497C389.06,303.788,387.159,304.565,385.181,304.553z"/>
	<path d="M623.293,185.497c-4.109,0-7.44-3.332-7.44-7.441v-52.087h-52.087c-4.11,0-7.441-3.331-7.441-7.441
		c0-4.109,3.331-7.44,7.441-7.44h59.527c4.109,0,7.441,3.331,7.441,7.44v59.528C630.734,182.165,627.402,185.497,623.293,185.497z"
		/>
</g>
</svg>
