<?xml version="1.0" encoding="utf-8"?>
<!-- Generator: Adobe Illustrator 14.0.0, SVG Export Plug-In . SVG Version: 6.00 Build 43363)  -->
<!DOCTYPE svg PUBLIC "-//W3C//DTD SVG 1.1//EN" "http://www.w3.org/Graphics/SVG/1.1/DTD/svg11.dtd">
<svg version="1.1" id="Ebene_1" xmlns="http://www.w3.org/2000/svg" xmlns:xlink="http://www.w3.org/1999/xlink" x="0px" y="0px"
	 width="841.891px" height="595.279px" viewBox="0 0 841.891 595.279" enable-background="new 0 0 841.891 595.279"
	 xml:space="preserve">
<path d="M260.033,365.718l159.158,41.657c0.736,0.189,1.483,0.282,2.228,0.282c0.744,0,1.491-0.093,2.222-0.282l159.161-41.657
	c3.874-1.008,6.57-4.508,6.57-8.519V132.354c0-2.727-1.263-5.303-3.421-6.967c-0.949-0.736-2.027-1.211-3.163-1.505l0.014-0.045
	L423.646,82.184c-1.461-0.383-2.997-0.383-4.459,0l-159.154,41.652l0.008,0.04c-1.127,0.295-2.216,0.775-3.16,1.511
	c-2.162,1.664-3.425,4.239-3.425,6.966v224.845C253.455,361.204,256.158,364.702,260.033,365.718z M571.769,350.405l-141.546,37.043
	v-206.64l141.546-37.046V350.405z M421.419,99.801l124.372,32.553L421.419,164.91l-124.382-32.56L421.419,99.801z"/>
<path d="M230.551,454.951l0.396,0.398c0.189,0.211,0.387,0.413,0.598,0.602l22.104,22.099c3.438,3.439,9.011,3.439,12.449,0
	c3.439-3.438,3.439-9.017,0-12.449l-7.347-7.348h357.269c4.859,0,8.804-3.943,8.804-8.803c0-4.861-3.944-8.804-8.804-8.804H257.307
	l8.783-8.786c3.437-3.439,3.437-9.013,0-12.451c-1.722-1.722-3.967-2.578-6.226-2.578c-2.253,0-4.499,0.856-6.22,2.578
	l-23.093,23.094c-1.652,1.649-2.579,3.896-2.579,6.224C227.972,451.06,228.899,453.301,230.551,454.951z"/>
<path d="M420.945,14.646c-156.303,0-283.465,127.163-283.465,283.466c0,156.301,127.162,283.463,283.465,283.463
	c156.302,0,283.465-127.162,283.465-283.463C704.41,141.809,577.247,14.646,420.945,14.646z M420.945,562.678
	c-145.884,0-264.568-118.684-264.568-264.566c0-145.884,118.684-264.568,264.568-264.568c145.883,0,264.566,118.684,264.566,264.568
	C685.511,443.995,566.828,562.678,420.945,562.678z"/>
</svg>
