<?xml version="1.0" encoding="utf-8"?>
<!-- Generator: Adobe Illustrator 14.0.0, SVG Export Plug-In . SVG Version: 6.00 Build 43363)  -->
<!DOCTYPE svg PUBLIC "-//W3C//DTD SVG 1.1//EN" "http://www.w3.org/Graphics/SVG/1.1/DTD/svg11.dtd">
<svg version="1.1" id="Ebene_1" xmlns="http://www.w3.org/2000/svg" xmlns:xlink="http://www.w3.org/1999/xlink" x="0px" y="0px"
	 width="841.891px" height="595.279px" viewBox="0 0 841.891 595.279" enable-background="new 0 0 841.891 595.279"
	 xml:space="preserve">
<g>
	<g>
		<g>
			<g>
				<path d="M420.945,416.238c-3.628,0-6.511-2.883-6.511-6.511c0-3.627,2.883-6.511,6.511-6.511
					c57.946,0,105.104-47.157,105.104-105.104c0-3.628,2.884-6.512,6.512-6.512c3.627,0,6.511,2.884,6.511,6.512
					C539.071,363.221,486.053,416.238,420.945,416.238z"/>
			</g>
			<g>
				<path d="M309.33,304.623c-3.627,0-6.511-2.884-6.511-6.511c0-65.109,53.018-118.126,118.126-118.126
					c3.627,0,6.511,2.883,6.511,6.511c0,3.627-2.884,6.511-6.511,6.511c-57.947,0-105.104,47.157-105.104,105.104
					C315.841,301.74,312.958,304.623,309.33,304.623z"/>
			</g>
			<g>
				<path d="M448.848,518.552h-55.807c-3.628,0-6.512-2.884-6.512-6.512v-52.924c-19.719-4.186-38.135-11.812-55.063-22.881
					l-37.391,37.391c-1.209,1.21-2.884,1.86-4.558,1.86s-3.349-0.65-4.558-1.86l-39.438-39.437c-2.511-2.512-2.511-6.697,0-9.209
					l37.392-37.391c-11.162-16.929-18.789-35.345-22.975-55.063h-52.924c-3.628,0-6.511-2.883-6.511-6.511v-55.808
					c0-3.627,2.883-6.511,6.511-6.511h52.924c4.186-19.719,11.812-38.135,22.881-55.063l-37.391-37.391
					c-2.512-2.512-2.512-6.697,0-9.209l39.438-39.438c2.511-2.511,6.696-2.511,9.208,0l37.391,37.392
					c16.929-11.068,35.345-18.695,55.063-22.881V84.183c0-3.627,2.884-6.511,6.512-6.511h55.807c3.628,0,6.511,2.884,6.511,6.511
					v52.925c19.719,4.186,38.136,11.812,55.063,22.881l37.392-37.392c1.209-1.209,2.883-1.953,4.65-1.953s3.349,0.651,4.65,1.953
					l39.438,39.438c2.512,2.512,2.512,6.697,0,9.209l-37.391,37.391c10.975,16.929,18.695,35.438,22.881,55.063h52.831
					c3.627,0,6.511,2.884,6.511,6.511v55.808c0,3.628-2.884,6.511-6.511,6.511H581.95c-4.186,19.719-11.813,38.135-22.882,55.063
					l37.392,37.391c2.511,2.512,2.511,6.697,0,9.209l-39.438,39.437c-1.209,1.21-2.884,1.86-4.65,1.86
					c-1.768,0-3.349-0.65-4.651-1.86l-37.391-37.391c-16.928,10.976-35.438,18.695-55.063,22.881v52.924
					C455.359,515.668,452.476,518.552,448.848,518.552z M399.552,505.53h42.786v-51.715c0-3.162,2.232-5.859,5.395-6.418
					c21.579-3.813,41.763-12.185,59.808-24.834c2.604-1.768,6.139-1.488,8.371,0.744l36.646,36.646l30.229-30.229l-36.647-36.647
					c-2.232-2.232-2.511-5.767-0.744-8.371c12.65-18.044,20.928-38.228,24.835-59.807c0.558-3.069,3.255-5.395,6.418-5.395h51.715
					v-42.786h-51.715c-3.163,0-5.86-2.232-6.418-5.395c-3.813-21.579-12.185-41.763-24.835-59.807
					c-1.767-2.604-1.488-6.14,0.744-8.371l36.647-36.647l-30.229-30.229l-36.646,36.647c-2.232,2.232-5.767,2.512-8.371,0.744
					c-18.045-12.649-38.229-20.928-59.808-24.834c-3.069-0.559-5.395-3.256-5.395-6.418V90.695h-42.786v51.715
					c0,3.162-2.231,5.859-5.395,6.418c-21.578,3.813-41.762,12.185-59.807,24.834c-2.604,1.768-6.139,1.488-8.371-0.744
					l-36.646-36.647l-30.229,30.229l36.646,36.647c2.232,2.231,2.512,5.767,0.744,8.371c-12.649,18.044-20.928,38.228-24.834,59.807
					c-0.558,3.069-3.256,5.395-6.418,5.395h-51.715v42.786h51.715c3.162,0,5.86,2.232,6.418,5.395
					c3.813,21.579,12.185,41.763,24.834,59.807c1.768,2.604,1.488,6.139-0.744,8.371l-36.646,36.647l30.229,30.229l36.646-36.646
					c2.232-2.232,5.767-2.512,8.371-0.744c18.045,12.649,38.229,20.928,59.807,24.834c3.069,0.559,5.395,3.256,5.395,6.418V505.53z"
					/>
			</g>
			<g>
				<path d="M467.451,360.431h-93.012c-3.628,0-6.512-2.884-6.512-6.512v-27.903c0-29.206,23.812-53.018,53.018-53.018
					s53.017,23.812,53.017,53.018v27.903C473.962,357.547,471.079,360.431,467.451,360.431z M380.95,347.408h79.99v-21.393
					c0-22.044-17.951-39.995-39.995-39.995s-39.995,17.951-39.995,39.995V347.408z"/>
			</g>
			<g>
				<path d="M420.945,286.021c-18.975,0-34.415-15.44-34.415-34.415s15.44-34.414,34.415-34.414s34.414,15.439,34.414,34.414
					S439.92,286.021,420.945,286.021z M420.945,230.213c-11.812,0-21.394,9.58-21.394,21.393s9.581,21.393,21.394,21.393
					s21.393-9.58,21.393-21.393S432.758,230.213,420.945,230.213z"/>
			</g>
		</g>
	</g>
</g>
</svg>
