<?xml version="1.0" encoding="utf-8"?>
<!-- Generator: Adobe Illustrator 14.0.0, SVG Export Plug-In . SVG Version: 6.00 Build 43363)  -->
<!DOCTYPE svg PUBLIC "-//W3C//DTD SVG 1.1//EN" "http://www.w3.org/Graphics/SVG/1.1/DTD/svg11.dtd">
<svg version="1.1"
	 id="Ebene_1" xmlns:inkscape="http://www.inkscape.org/namespaces/inkscape" xmlns:dc="http://purl.org/dc/elements/1.1/" xmlns:cc="http://creativecommons.org/ns#" xmlns:rdf="http://www.w3.org/1999/02/22-rdf-syntax-ns#" xmlns:sodipodi="http://sodipodi.sourceforge.net/DTD/sodipodi-0.dtd" xmlns:svg="http://www.w3.org/2000/svg"
	 xmlns="http://www.w3.org/2000/svg" xmlns:xlink="http://www.w3.org/1999/xlink" x="0px" y="0px" width="406.144px"
	 height="409.624px" viewBox="217.872 93.3 406.144 409.624" enable-background="new 217.872 93.3 406.144 409.624"
	 xml:space="preserve">
<g transform="translate(0,-952.36218)">
	<path d="M441.162,1087.653c-1.246,0.021-2.477,0.551-3.344,1.444c-0.867,0.895-1.363,2.14-1.346,3.386v35.298h-35.304
		c-1.26-0.019-2.517,0.488-3.411,1.371c-0.896,0.884-1.419,2.134-1.419,3.392s0.521,2.509,1.419,3.393
		c0.896,0.883,2.151,1.389,3.411,1.371h35.304v35.298c0,1.258,0.488,2.516,1.371,3.411s2.133,1.419,3.391,1.419
		s2.508-0.522,3.393-1.419c0.883-0.896,1.389-2.153,1.369-3.411v-35.298h35.369c1.258,0.019,2.518-0.488,3.412-1.371
		c0.896-0.885,1.418-2.135,1.418-3.393s-0.521-2.508-1.418-3.392c-0.896-0.883-2.154-1.389-3.412-1.371h-35.369v-35.298
		c0-0.636-0.107-1.271-0.352-1.86c-0.238-0.588-0.598-1.128-1.047-1.577c-0.447-0.447-0.988-0.806-1.576-1.044
		c-0.59-0.238-1.227-0.356-1.861-0.348L441.162,1087.653z"/>
	<path d="M513.449,1045.663c-1.246,0.02-2.477,0.551-3.344,1.444c-0.869,0.894-1.365,2.14-1.346,3.386v17.165h-17.105
		c-1.258-0.019-2.514,0.487-3.41,1.371c-0.896,0.883-1.418,2.134-1.418,3.392c0,1.259,0.521,2.509,1.418,3.393
		c0.896,0.883,2.152,1.388,3.41,1.37h17.105v17.165c0,1.258,0.486,2.516,1.369,3.411c0.885,0.896,2.135,1.419,3.393,1.419
		s2.508-0.522,3.391-1.419c0.885-0.896,1.391-2.153,1.371-3.411v-17.165h17.168c1.26,0.02,2.518-0.487,3.412-1.37
		c0.896-0.884,1.418-2.134,1.418-3.393c0-1.258-0.521-2.509-1.418-3.392c-0.896-0.884-2.152-1.389-3.412-1.371h-17.168v-17.165
		c0-0.635-0.107-1.271-0.348-1.859c-0.238-0.589-0.596-1.129-1.045-1.577c-0.447-0.448-0.99-0.807-1.578-1.045
		c-0.59-0.238-1.227-0.357-1.861-0.349H513.449L513.449,1045.663z"/>
	<path d="M542.646,1185.907c-1.246,0.021-2.477,0.551-3.344,1.445c-0.867,0.894-1.363,2.14-1.346,3.386v35.299h-35.305
		c-1.258-0.02-2.516,0.487-3.412,1.371c-0.895,0.883-1.418,2.133-1.418,3.391c0,1.26,0.523,2.51,1.418,3.393
		c0.896,0.884,2.154,1.389,3.412,1.371h35.305v35.299c0,1.258,0.488,2.515,1.371,3.411c0.883,0.896,2.133,1.419,3.393,1.419
		c1.258,0,2.508-0.523,3.391-1.419c0.883-0.896,1.389-2.153,1.371-3.411v-35.299h35.303c1.26,0.02,2.516-0.487,3.412-1.371
		c0.895-0.883,1.418-2.133,1.418-3.393c0-1.258-0.523-2.508-1.418-3.391c-0.896-0.884-2.152-1.389-3.412-1.371h-35.303v-35.299
		c0-0.635-0.109-1.271-0.348-1.86c-0.238-0.589-0.598-1.128-1.047-1.576c-0.447-0.449-0.99-0.808-1.578-1.047
		c-0.59-0.237-1.227-0.356-1.861-0.348H542.646L542.646,1185.907z"/>
	<path d="M597.184,1134.723c-1.246,0.019-2.479,0.55-3.346,1.443c-0.867,0.895-1.363,2.141-1.346,3.388v17.164h-17.168
		c-1.258-0.02-2.516,0.487-3.412,1.37c-0.895,0.885-1.418,2.135-1.418,3.393s0.523,2.508,1.418,3.392
		c0.896,0.883,2.154,1.39,3.412,1.371h17.168v17.164c0,1.259,0.486,2.516,1.369,3.411c0.885,0.896,2.135,1.419,3.395,1.419
		c1.258,0,2.508-0.522,3.391-1.419s1.389-2.152,1.371-3.411v-17.164h17.17c1.258,0.02,2.514-0.488,3.41-1.371
		c0.896-0.884,1.418-2.134,1.418-3.392s-0.521-2.508-1.418-3.393c-0.896-0.883-2.152-1.389-3.41-1.37h-17.17v-17.164
		c0-0.637-0.109-1.272-0.35-1.86c-0.236-0.589-0.596-1.129-1.045-1.577c-0.447-0.449-0.988-0.807-1.578-1.046
		c-0.59-0.238-1.227-0.357-1.859-0.348H597.184L597.184,1134.723z"/>
	<path d="M566.252,1086.179c-1.225,0.02-2.434,0.527-3.299,1.393L219.268,1431.21c-0.882,0.881-1.396,2.12-1.396,3.366
		c0,1.247,0.514,2.486,1.396,3.368l15.95,15.946c0.882,0.883,2.121,1.396,3.368,1.396c1.248,0,2.486-0.514,3.369-1.396
		l343.684-343.637c0.883-0.882,1.396-2.12,1.396-3.367c0-1.246-0.514-2.486-1.396-3.367l-15.949-15.947
		c-0.447-0.449-0.988-0.807-1.578-1.045C567.523,1086.289,566.887,1086.169,566.252,1086.179L566.252,1086.179z M566.322,1097.675
		l9.213,9.212l-336.947,336.899l-9.212-9.212L566.322,1097.675z"/>
</g>
</svg>
