<?xml version="1.0" encoding="utf-8"?>
<!-- Generator: Adobe Illustrator 14.0.0, SVG Export Plug-In . SVG Version: 6.00 Build 43363)  -->
<!DOCTYPE svg PUBLIC "-//W3C//DTD SVG 1.1//EN" "http://www.w3.org/Graphics/SVG/1.1/DTD/svg11.dtd">
<svg version="1.1" id="Ebene_1" xmlns="http://www.w3.org/2000/svg" xmlns:xlink="http://www.w3.org/1999/xlink" x="0px" y="0px"
	 width="841.891px" height="595.279px" viewBox="0 0 841.891 595.279" enable-background="new 0 0 841.891 595.279"
	 xml:space="preserve">
<g>
	<path d="M359.03,417.115h-47.056H255.77c-6.434,0-11.979-3.824-14.489-9.316l-27.328-47.335l-0.027,0.02l-28.109-48.679
		c-2.977-5.146-2.743-11.266,0.073-16.044l28.036-48.549c0.16-0.287,0.333-0.561,0.513-0.828l27.589-47.783
		c2.923-5.098,8.255-7.948,13.741-7.954v-0.066h56.204h15.683c1.488,0,2.769,0.606,3.71,1.768c0.935,1.161,1.269,2.542,0.955,3.998
		c-0.528,2.502-0.814,5.105-0.814,7.768c0,4.191,0.694,8.229,1.982,11.986c0.514,1.501,0.293,3.022-0.634,4.317
		c-0.927,1.294-2.295,1.996-3.884,1.996h-16.998h-47.095l-22.99,39.814c-0.147,0.301-0.314,0.607-0.481,0.901l-23.51,40.715
		l23.51,40.718l-0.027,0.02l0.027,0.047l23.471,40.648h47.095h47.056l23.51-40.715c0.16-0.274,0.328-0.541,0.501-0.802l0.02-0.026
		l23.024-39.89l-23.024-39.888l-0.02-0.02c-0.173-0.268-0.341-0.535-0.501-0.808l-9.108-15.77c-0.781-1.362-0.868-2.877-0.227-4.318
		c0.633-1.442,1.801-2.403,3.343-2.736c6.64-1.461,12.62-4.698,17.398-9.197c1.101-1.034,2.476-1.468,3.971-1.248
		c1.488,0.221,2.683,1.028,3.436,2.336l8.669,15.016c0.173,0.293,0.333,0.601,0.487,0.9l22.983,39.815h47.096h15.99
		c1.501,0,2.803,0.627,3.736,1.809c0.935,1.181,1.254,2.582,0.907,4.051c-0.627,2.716-0.968,5.539-0.968,8.448
		c0,3.938,0.621,7.734,1.755,11.299c0.481,1.502,0.234,2.997-0.693,4.271c-0.928,1.268-2.282,1.955-3.857,1.955h-16.87h-47.096
		l-22.983,39.816c-0.154,0.307-0.314,0.607-0.487,0.907l-23.511,40.716l23.511,40.715l-0.027,0.014l0.027,0.046l6.687,11.579
		c0.762,1.328,0.861,2.796,0.274,4.217c-0.587,1.416-1.695,2.384-3.176,2.783c-6.52,1.749-12.346,5.232-16.917,9.924
		c-1.081,1.107-2.483,1.603-4.017,1.408c-1.528-0.194-2.77-1.014-3.537-2.35l-6.768-11.718l-0.027,0.013L359.03,417.115z
		 M368.565,180.121c13.247,0,23.991,10.745,23.991,23.992c0,13.254-10.745,23.991-23.991,23.991
		c-13.253,0-23.998-10.737-23.998-23.991C344.568,190.865,355.312,180.121,368.565,180.121z M537.304,278.242
		c13.254,0,23.998,10.738,23.998,23.991c0,13.248-10.744,23.992-23.998,23.992c-13.247,0-23.991-10.744-23.991-23.992
		C513.313,288.98,524.057,278.242,537.304,278.242z M423.414,472.351c13.254,0,23.991,10.745,23.991,23.991
		c0,13.254-10.737,23.992-23.991,23.992c-13.246,0-23.99-10.738-23.99-23.992C399.424,483.096,410.168,472.351,423.414,472.351z
		 M464.283,482.628h16.304h47.062l23.504-40.715l0.026,0.014l23.518-40.729l-23.023-39.888c-0.18-0.273-0.354-0.548-0.521-0.828
		l-8.696-15.069c-0.779-1.354-0.867-2.863-0.239-4.298c0.628-1.436,1.788-2.396,3.316-2.743c6.634-1.501,12.586-4.784,17.338-9.316
		c1.102-1.042,2.476-1.482,3.978-1.269c1.495,0.214,2.695,1.028,3.45,2.336l8.336,14.437c0.173,0.3,0.333,0.6,0.486,0.907
		l27.615,47.837c2.909,5.058,2.709,11.064,0,15.789l-0.073,0.12l-28.028,48.556l-0.027,0.048l0.027,0.013l-28.104,48.677
		c-2.942,5.079-8.268,7.915-13.74,7.922v0.033h-56.204h-17.519c-1.588,0-2.95-0.694-3.878-1.989
		c-0.928-1.288-1.154-2.803-0.646-4.304c1.248-3.711,1.929-7.688,1.929-11.826c0-2.723-0.294-5.371-0.848-7.928
		c-0.32-1.454,0.006-2.843,0.947-4.011C461.507,483.242,462.795,482.628,464.283,482.628z M375.833,161.476l6.706-11.619
		c0.167-0.28,0.333-0.554,0.521-0.827l27.582-47.783c2.923-5.091,8.254-7.948,13.74-7.955v-0.066h56.205h56.204
		c6.434,0,11.979,3.824,14.488,9.316l27.328,47.336l0.027-0.021l28.102,48.677c2.977,5.146,2.749,11.265-0.066,16.043l-28.035,48.55
		c-0.168,0.286-0.334,0.56-0.521,0.827l-6.653,11.532c-0.774,1.341-2.016,2.163-3.543,2.355c-1.536,0.188-2.944-0.307-4.019-1.415
		c-4.564-4.705-10.377-8.208-16.897-9.963c-1.48-0.4-2.582-1.368-3.169-2.79c-0.581-1.415-0.487-2.883,0.28-4.205l6.553-11.358
		c0.154-0.3,0.314-0.607,0.487-0.9l23.511-40.715l-23.511-40.715l0.026-0.021l-0.026-0.046l-23.471-40.649h-47.095h-47.096
		l-22.983,39.807c-0.154,0.308-0.314,0.608-0.487,0.908l-6.927,11.993c-0.774,1.348-2.028,2.175-3.577,2.355
		c-1.548,0.18-2.956-0.333-4.024-1.461c-4.524-4.785-10.31-8.376-16.823-10.211c-1.468-0.414-2.556-1.388-3.123-2.796
		C374.972,164.245,375.072,162.79,375.833,161.476z"/>
</g>
<text transform="matrix(1 0 0 1 182.8333 476.3342)" font-family="'HelveticaNeue-BoldOutline'" font-size="0.0366">Created by popcornarts</text>
<text transform="matrix(1 0 0 1 182.8333 476.3713)" font-family="'HelveticaNeue-BoldOutline'" font-size="0.0366">from the Noun Project</text>
<path d="M420.945,14.647c-156.303,0-283.465,127.163-283.465,283.466c0,156.301,127.162,283.463,283.465,283.463
	c156.302,0,283.465-127.162,283.465-283.463C704.41,141.81,577.247,14.647,420.945,14.647z M420.945,562.679
	c-145.884,0-264.568-118.684-264.568-264.566c0-145.884,118.684-264.568,264.568-264.568c145.883,0,264.566,118.684,264.566,264.568
	C685.511,443.995,566.828,562.679,420.945,562.679z"/>
</svg>
