<?xml version="1.0" encoding="utf-8"?>
<!-- Generator: Adobe Illustrator 14.0.0, SVG Export Plug-In . SVG Version: 6.00 Build 43363)  -->
<!DOCTYPE svg PUBLIC "-//W3C//DTD SVG 1.1//EN" "http://www.w3.org/Graphics/SVG/1.1/DTD/svg11.dtd">
<svg version="1.1" id="Ebene_1" xmlns="http://www.w3.org/2000/svg" xmlns:xlink="http://www.w3.org/1999/xlink" x="0px" y="0px"
	 width="841.891px" height="595.279px" viewBox="0 0 841.891 595.279" enable-background="new 0 0 841.891 595.279"
	 xml:space="preserve">
<g>
	<path d="M635.294,166.674H378.133c-7.144,0-12.858,5.715-12.858,12.858v92.388c3.81-1.429,8.096-1.905,12.382-1.905
		c4.763,0,9.049,0.952,13.334,2.381v-79.529h230.969v213.824H390.99v-60.479l-26.191,13.334v60.004
		c0,7.144,5.714,12.858,12.857,12.858h257.161c7.144,0,12.858-5.715,12.858-12.858V179.532
		C648.151,172.865,642.436,166.674,635.294,166.674z"/>
	<path d="M396.705,299.54c-5.238-10.477-18.572-14.763-29.05-9.524l-40.479,20.479c0,0-43.337-29.05-47.622-32.384
		c-4.286-2.857-9.525-6.19-12.858-7.144c-14.287-4.286-51.433-8.096-61.433,16.192c-11.43,26.191-9.524,92.387-9.049,139.533
		c0,4.286,2.857,7.144,6.667,7.144c10.001,0,73.339,0,78.102,0c4.762,0,6.667-2.382,7.143-6.191
		c0.477-2.381,4.763-55.718,4.286-79.529c0-2.381,0-5.238,0-8.096l20.478,13.811c3.811,2.381,8.096,3.81,12.382,3.81
		c3.334,0,6.667-0.952,10.001-2.381l51.908-26.669C397.657,323.352,401.943,310.018,396.705,299.54z"/>
	<circle cx="250.028" cy="209.534" r="47.622"/>
	<path d="M492.902,344.306c3.81,0,7.144-1.429,9.524-4.286l58.576-62.861c4.762-5.238,4.762-13.335-0.477-18.573
		c-5.238-4.762-13.334-4.762-18.573,0.477l-49.051,52.385l-21.43-22.859c-4.763-5.238-13.335-5.714-18.573-0.476
		c-5.238,4.762-5.715,13.334-0.476,18.572l30.954,32.859C485.759,342.401,489.093,344.306,492.902,344.306z"/>
</g>
</svg>
