<?xml version="1.0" encoding="utf-8"?>
<!-- Generator: Adobe Illustrator 14.0.0, SVG Export Plug-In . SVG Version: 6.00 Build 43363)  -->
<!DOCTYPE svg PUBLIC "-//W3C//DTD SVG 1.1//EN" "http://www.w3.org/Graphics/SVG/1.1/DTD/svg11.dtd">
<svg version="1.1" id="Ebene_1" xmlns="http://www.w3.org/2000/svg" xmlns:xlink="http://www.w3.org/1999/xlink" x="0px" y="0px"
	 width="461.346px" height="461.43px" viewBox="190.273 61.44 461.346 461.43"
	 enable-background="new 190.273 61.44 461.346 461.43" xml:space="preserve">
<title>graph-science-chemistry-tube-test-education</title>
<g>
	<path d="M257.243,433.49c-16.438,0-29.764,13.326-29.764,29.766c0,16.438,13.325,29.764,29.764,29.764s29.764-13.325,29.764-29.764
		C287.007,446.816,273.681,433.49,257.243,433.49z M257.243,478.137c-8.219,0-14.882-6.663-14.882-14.882
		c0-8.221,6.663-14.883,14.882-14.883c8.219,0,14.882,6.662,14.882,14.883C272.125,471.474,265.462,478.137,257.243,478.137z"/>
	<path d="M331.653,448.373c-12.329,0-22.323,9.994-22.323,22.322c0,12.329,9.994,22.323,22.323,22.323
		c12.328,0,22.323-9.994,22.323-22.323C353.976,458.367,343.981,448.373,331.653,448.373z M331.653,478.137
		c-4.108,0-7.44-3.331-7.44-7.441c0-4.108,3.332-7.439,7.44-7.439c4.109,0,7.441,3.331,7.441,7.439
		C339.094,474.806,335.762,478.137,331.653,478.137z"/>
	<path d="M376.299,403.727c-12.328,0-22.322,9.994-22.322,22.323c0,12.328,9.994,22.322,22.322,22.322
		c12.329,0,22.322-9.994,22.322-22.322C398.622,413.721,388.628,403.727,376.299,403.727z M376.299,433.49
		c-4.109,0-7.44-3.331-7.44-7.439c0-4.109,3.331-7.441,7.44-7.441s7.44,3.332,7.44,7.441
		C383.74,430.159,380.409,433.49,376.299,433.49z"/>
	<rect x="264.684" y="403.727" width="14.882" height="14.882"/>
	<rect x="294.448" y="403.727" width="14.882" height="14.882"/>
	<rect x="413.504" y="478.137" width="14.882" height="14.882"/>
	<rect x="383.74" y="478.137" width="14.882" height="14.882"/>
	<path d="M577.205,380.243v-50.927h14.883v-14.882h-89.291v14.882h14.881v50.927c-37.664,16.438-54.871,60.297-38.434,97.962
		c16.438,37.664,60.297,54.872,97.961,38.435c37.666-16.438,54.873-60.297,38.436-97.962
		C608.135,401.478,594.404,387.749,577.205,380.243z M562.324,329.317V344.2h-29.764v-14.883H562.324z M527.596,392.313
		c2.975-1.051,4.965-3.862,4.965-7.019v-26.214h29.764v26.214c0,3.155,1.988,5.968,4.963,7.019
		c18.613,6.649,32.713,22.106,37.629,41.253c-5.645,0.165-11.012,2.479-15.008,6.466l-6.162,6.161
		c-1.396,1.397-3.293,2.182-5.268,2.181h-2.545c-1.977,0.001-3.871-0.782-5.27-2.181l-6.16-6.161
		c-4.18-4.2-9.865-6.556-15.789-6.541h-2.545c-5.928-0.015-11.611,2.341-15.791,6.541l-6.16,6.161
		c-1.396,1.397-3.293,2.182-5.27,2.181h-2.545c-1.977,0.001-3.871-0.782-5.268-2.181l-6.162-6.161
		c-3.996-3.987-9.365-6.301-15.008-6.466C494.885,414.42,508.982,398.963,527.596,392.313z M547.441,507.901
		c-32.861-0.036-59.49-26.667-59.527-59.527h1.271c1.977-0.002,3.871,0.782,5.27,2.181l6.16,6.161
		c4.178,4.204,9.863,6.56,15.789,6.541h2.545c5.928,0.019,11.613-2.337,15.791-6.541l6.16-6.161c1.398-1.397,3.293-2.183,5.27-2.181
		h2.545c1.977-0.002,3.871,0.782,5.268,2.181l6.162,6.161c4.176,4.204,9.863,6.56,15.789,6.541h2.545
		c5.926,0.019,11.613-2.337,15.791-6.541l6.16-6.161c1.396-1.397,3.293-2.183,5.268-2.181h1.273
		C606.934,481.234,580.303,507.865,547.441,507.901z"/>
	<rect x="525.119" y="478.137" width="14.883" height="14.882"/>
	<rect x="554.883" y="478.137" width="14.883" height="14.882"/>
	<path d="M535.283,128.41l8.93-14.883h36.223l20.158,33.597c1.346,2.238,3.766,3.608,6.377,3.608h44.645V135.85h-40.434
		l-17.859-29.765l20.023-33.373l-12.754-7.664l-20.156,33.597h-36.223L524.055,65.05c-1.346-2.238-3.766-3.607-6.377-3.608h-44.646
		v14.882h40.436l17.857,29.765l-8.93,14.883l-8.93,14.882h-36.223l-20.158-33.597c-1.346-2.238-3.766-3.607-6.377-3.608h-44.646
		c-2.612,0.001-5.032,1.37-6.377,3.608l-20.158,33.597h-40.434c-2.612,0.001-5.032,1.37-6.377,3.608l-22.323,37.205
		c-0.696,1.157-1.063,2.481-1.064,3.832h-22.323c-12.328-0.007-22.328,9.982-22.335,22.312c-0.005,9.47,5.965,17.911,14.895,21.062
		v81.228l-84.753,155.375c-2.974,5.467-4.534,11.591-4.539,17.813v7.293c0.024,20.537,16.667,37.181,37.205,37.205h193.466
		c20.537-0.024,37.179-16.668,37.205-37.205v-7.293c-0.006-6.223-1.566-12.347-4.539-17.813l-84.752-155.375V223.87
		c11.626-4.103,17.725-16.854,13.621-28.479c-3.15-8.931-11.593-14.899-21.063-14.895h-35.97l17.858-29.765h36.223l20.158,33.597
		l12.754-7.664l-20.024-33.373l17.858-29.765h36.223l8.93,14.883l8.93,14.882l-20.023,33.373c-1.418,2.358-1.418,5.307,0,7.664
		l20.023,33.373l-20.023,33.373l12.754,7.664l20.158-33.597h36.223l8.93,14.882l8.93,14.883l-17.857,29.764h-40.436v14.883h44.646
		c2.611,0,5.031-1.37,6.377-3.608l20.158-33.597h36.223l19.094,31.824v5.381h14.881v-7.44c0-1.351-0.367-2.676-1.063-3.833
		l-20.023-33.372l17.857-29.765h40.436v-14.882h-40.436l-20.156-33.597c-1.346-2.239-3.766-3.607-6.377-3.608h-40.436l-8.93-14.883
		l-8.93-14.882L535.283,128.41z M443.268,478.285v7.293c0,12.328-9.994,22.322-22.323,22.322l0,0H227.479
		c-12.329,0-22.323-9.994-22.323-22.322l0,0v-7.293c0.001-3.734,0.937-7.411,2.724-10.691l51.075-93.631h7.002
		c1.976-0.002,3.871,0.782,5.268,2.181l6.161,6.161c4.177,4.203,9.864,6.56,15.79,6.541h2.545c5.926,0.019,11.613-2.338,15.79-6.541
		l6.161-6.161c1.396-1.397,3.292-2.183,5.268-2.181h2.545c1.978-0.002,3.871,0.782,5.27,2.181l6.161,6.161
		c4.177,4.203,9.862,6.56,15.79,6.541h2.545c5.926,0.019,11.611-2.338,15.789-6.541l6.16-6.161c1.397-1.397,3.293-2.183,5.27-2.181
		h7.002l51.076,93.631C442.33,470.874,443.268,474.551,443.268,478.285z M381.411,359.185c-5.545,0.221-10.804,2.519-14.732,6.437
		l-6.161,6.161c-1.396,1.397-3.292,2.182-5.269,2.181h-2.545c-1.977,0.001-3.871-0.782-5.269-2.181l-6.161-6.161
		c-4.18-4.2-9.864-6.555-15.79-6.54h-2.545c-5.925-0.015-11.61,2.34-15.789,6.54l-6.161,6.161c-1.396,1.397-3.293,2.182-5.269,2.181
		h-2.545c-1.976,0.001-3.871-0.782-5.269-2.181l-6.161-6.161c-3.929-3.918-9.188-6.216-14.732-6.437l26.526-48.627
		c0.597-1.094,0.908-2.318,0.908-3.563v-66.97h59.528v66.97c-0.001,1.245,0.312,2.471,0.907,3.563L381.411,359.185z M368.858,202.82
		c0,4.11-3.332,7.441-7.441,7.441c-4.108,0-7.439,3.33-7.439,7.44v7.44h-59.528v-7.44c0-4.11-3.331-7.44-7.441-7.44
		c-4.109,0-7.44-3.331-7.44-7.441c0-4.109,3.331-7.44,7.44-7.44h74.411C365.526,195.379,368.858,198.71,368.858,202.82z
		 M459.385,180.497l8.93-14.882l8.93-14.883h36.223l8.93,14.883l8.93,14.882l-8.93,14.882l-8.93,14.883h-36.223L459.385,180.497z
		 M598.295,217.702l-17.859,29.764h-36.223l-8.93-14.882l-8.93-14.882l8.93-14.883l8.93-14.882h36.223L598.295,217.702z"/>
	<path d="M287.007,165.615c12.33,0,22.323-9.995,22.323-22.323c0-12.329-9.993-22.322-22.323-22.322
		c-12.328,0-22.322,9.993-22.322,22.322C264.684,155.62,274.678,165.615,287.007,165.615z M287.007,135.851
		c4.11,0,7.441,3.332,7.441,7.44c0,4.109-3.331,7.44-7.441,7.44c-4.109,0-7.44-3.331-7.44-7.44
		C279.567,139.183,282.897,135.851,287.007,135.851z"/>
	<path d="M339.094,120.969c16.438,0,29.764-13.326,29.764-29.765c0-16.438-13.326-29.765-29.764-29.765
		c-16.438,0-29.766,13.326-29.766,29.765C309.33,107.643,322.656,120.969,339.094,120.969z M339.094,76.323
		c8.219,0,14.882,6.663,14.882,14.883c0,8.219-6.663,14.882-14.882,14.882c-8.221,0-14.883-6.663-14.883-14.882
		C324.212,82.986,330.875,76.323,339.094,76.323z"/>
	<path d="M227.479,135.851c20.548,0,37.205-16.657,37.205-37.205s-16.657-37.205-37.205-37.205s-37.205,16.657-37.205,37.205
		C190.299,119.184,206.941,135.826,227.479,135.851z M227.479,76.323c12.328,0,22.322,9.995,22.322,22.323
		c0,12.329-9.994,22.323-22.322,22.323c-12.329,0-22.323-9.994-22.323-22.323C205.156,86.318,215.15,76.323,227.479,76.323z"/>
</g>
</svg>
