<?xml version="1.0" encoding="utf-8"?>
<!-- Generator: Adobe Illustrator 14.0.0, SVG Export Plug-In . SVG Version: 6.00 Build 43363)  -->
<!DOCTYPE svg PUBLIC "-//W3C//DTD SVG 1.1//EN" "http://www.w3.org/Graphics/SVG/1.1/DTD/svg11.dtd">
<svg version="1.1" id="Ebene_2" xmlns="http://www.w3.org/2000/svg" xmlns:xlink="http://www.w3.org/1999/xlink" x="0px" y="0px"
	 width="841.891px" height="595.279px" viewBox="0 0 841.891 595.279" enable-background="new 0 0 841.891 595.279"
	 xml:space="preserve">
<path d="M513.875,108.898c-3.615-1.556-7.792,0.142-9.289,3.692c-1.648,3.625,0.065,7.862,3.689,9.439
	c62.033,26.866,107.014,80.306,124.212,143.588c-11.682-8.661-25.72-28.861-33.944-44.288c-0.021-0.038-0.06-0.066-0.077-0.105
	c-0.076-0.204-0.326-0.382-0.413-0.579c-0.376-0.471-0.63-0.907-1.072-1.233c-0.311-0.218-0.474-0.421-0.806-0.617
	c-0.457-0.271-0.937-0.499-1.426-0.698c-0.395-0.167-0.78-0.238-1.187-0.291c-0.465-0.138-0.933-0.205-1.402-0.205
	c-0.125,0-0.387,0.042-0.512,0.059c-0.086,0.01-0.162-0.023-0.398-0.017l-46.982,6.755c-13.03-17.939-25.113-48.668-31.829-72.939
	c-0.033-0.192-0.11-0.291-0.295-0.479c-0.075-0.276-0.159-0.528-0.261-0.869c-0.322-0.485-0.679-0.937-0.922-1.369
	c-0.274-0.223-0.39-0.441-0.684-0.645c-0.476-0.377-0.992-0.767-1.546-1.038c-0.258-0.126-0.345-0.208-0.456-0.251
	c-0.778-0.346-1.439-0.55-2.275-0.579c-0.06-0.005-0.257,0.015-0.308,0.015c-0.043,0-0.076-0.024-0.115-0.024H463.87
	c-16.405-24.115-33.316-68.037-43.086-102.355c-0.902-3.084-3.914-5.245-7.074-5.122c-3.241,0.066-6.005,2.366-6.774,5.56
	c-4.666,21.573-23.293,77.968-52.383,80.042c-8.002,0.622-14.804-0.285-20.567-2.03c0.114-0.054,0.306-0.183,0.495-0.238
	c3.624-1.578,5.261-5.745,3.688-9.364c-1.572-3.625-5.749-5.259-9.365-3.761c-3.679,1.673-7.303,3.366-10.907,5.163
	c-7.955-6.309-11.375-13.174-11.616-13.685c-1.393-3.085-4.756-4.695-7.999-4.006c-3.32,0.792-5.628,3.634-5.628,7.002v25.241
	c-65.275,43.394-104.219,115.87-104.219,194.154c0,80.932,41.444,152.326,104.219,194.144v0.198h0.465
	c36.838,24.452,80.955,38.66,128.314,38.66c128.428,0,233.001-104.567,233.001-233.002
	C654.438,229.868,599.309,145.821,513.875,108.898z M575.745,234.269c-3.302,2.77-7.374,4.959-11.95,4.959
	c-2.295,0-4.775-0.831-7.129-2.233L575.745,234.269z M492.404,160.51c-2.144,2.043-4.52,3.592-7.168,3.592
	c-2.765,0-5.635-1.309-8.72-3.592H492.404L492.404,160.51z M202.724,322.82c0-70.205,33.467-135.496,89.93-176.684v256.37
	c0,3.995,3.194,7.184,7.109,7.184h14.289v7.681l-21.398-0.006v82.084C238.208,459.702,202.724,395.272,202.724,322.82z
	 M406.828,431.088v110.006c-36.424-2.521-70.482-13.878-99.883-31.903v-78.103H406.828z M328.343,417.371v-7.681h14.288v7.686
	L328.343,417.371z M356.849,417.381v-7.69h14.289v7.695L356.849,417.381z M385.429,417.385v-7.695h14.215v7.701L385.429,417.385z
	 M413.934,416.848v-6.669c0.603,0,1.088-0.135,1.589-0.365l12.704,1.613v7.49l-10.942-1.139
	C416.239,417.118,415.127,416.853,413.934,416.848z M421.042,541.601l-0.024-109.659l21.423,2.44v106.235
	c-6.894,0.595-13.845,0.993-21.004,0.993C421.354,541.606,421.199,541.601,421.042,541.601z M442.439,420.612v-7.59l14.363,1.736
	v7.543L442.439,420.612z M506.634,441.976v82.337c-11.405,4.755-23.309,8.681-35.612,11.504v-97.994L506.634,441.976z
	 M471.021,423.843v-7.34l14.214,1.738v7.292L471.021,423.843z M599.409,438.457v-7.004l11.01,1.297
	c-1.178,2.098-2.52,4.33-3.898,6.544L599.409,438.457z M585.193,436.916l-57.16-6.612v-5.665
	c1.151-8.229,14.546-16.403,30.511-14.617c16.153,1.792,27.134,11.907,26.649,20.034V436.916z M535.215,445.269l35.615,4.153v32.979
	c-10.919,10.158-22.816,19.301-35.615,27.261V445.269z M513.817,428.764l-14.214-1.69v-7.243l14.214,1.738V428.764z
	 M617.701,419.186l-21.646-2.569c-6.18-10.647-19.537-19.099-35.864-20.907c-15.568-1.603-30.41,3.52-38.985,12.488l-100.163-11.859
	V124.333c0-3.915-3.194-7.182-7.109-7.182c-3.916,0-7.107,3.267-7.107,7.182v271.143h-99.882v-271.86
	c9.781,8.481,25.328,16.631,48.672,14.924c30.786-2.163,49.447-41.509,58.541-67.854c13.05,39.159,40.092,107.634,71.08,107.634
	c7.566,0,13.473-3.846,17.734-8.279c24.942,79.218,54.844,83.478,60.825,83.478c12.699,0,22.067-8.166,27.953-15.334
	c9.333,15.231,26.818,40.367,44.62,45.067c2.486,12.932,3.854,26.205,3.854,39.569C640.224,357.383,632.104,390.092,617.701,419.186
	z"/>
<path d="M378.247,181.419c3.994,0,7.182-3.193,7.182-7.185v-7.107h-14.289v7.107C371.138,178.226,374.326,181.419,378.247,181.419z"
	/>
<path d="M356.849,167.13c3.995,0,7.185-3.193,7.185-7.109v-7.182h-14.29v7.182C349.742,163.937,352.929,167.13,356.849,167.13z"/>
<path d="M385.429,217.035c0,3.988,3.188,7.183,7.109,7.183c3.92,0,7.108-3.195,7.108-7.183v-7.11h-14.215L385.429,217.035
	L385.429,217.035z"/>
<path d="M385.429,188.527c0,3.915,3.188,7.108,7.109,7.108c3.92,0,7.108-3.193,7.108-7.108v-7.108h-14.215L385.429,188.527
	L385.429,188.527z"/>
<path d="M449.623,195.635v-7.108h-14.214v7.108c0,3.99,3.188,7.184,7.032,7.184C446.435,202.817,449.623,199.625,449.623,195.635z"
	/>
<path d="M471.021,224.216c3.994,0,7.182-3.195,7.182-7.185v-7.106h-14.364v7.108C463.838,221.023,467.026,224.216,471.021,224.216z"
	/>
<path d="M492.419,238.506c0,3.916,3.188,7.108,7.183,7.108c3.844,0,7.032-3.193,7.032-7.108v-7.183h-14.213L492.419,238.506
	L492.419,238.506z"/>
<path d="M492.419,267.011h-14.216v7.11c0,3.99,3.188,7.182,7.034,7.182c3.995,0,7.184-3.192,7.184-7.182L492.419,267.011
	L492.419,267.011z"/>
<path d="M463.838,309.883c0,3.84,3.189,7.032,7.186,7.032c3.994,0,7.182-3.192,7.182-7.032V302.7H463.84L463.838,309.883
	L463.838,309.883z"/>
<path d="M492.419,316.915c0,3.99,3.188,7.185,7.183,7.185c3.844,0,7.032-3.194,7.032-7.185v-7.032h-14.213L492.419,316.915
	L492.419,316.915z"/>
<path d="M442.439,245.614c0,3.916,3.188,7.109,7.184,7.109c3.996,0,7.182-3.193,7.182-7.109v-7.108h-14.363L442.439,245.614
	L442.439,245.614z"/>
<path d="M442.439,288.41c0,3.915,3.188,7.107,7.184,7.107c3.996,0,7.182-3.192,7.182-7.107v-7.108h-14.363L442.439,288.41
	L442.439,288.41z"/>
<path d="M442.439,345.496c0,3.989,3.188,7.183,7.184,7.183c3.996,0,7.182-3.193,7.182-7.183v-7.185h-14.363L442.439,345.496
	L442.439,345.496z"/>
<path d="M463.838,359.711c0,3.99,3.189,7.183,7.186,7.183c3.994,0,7.182-3.192,7.182-7.183v-7.032H463.84L463.838,359.711
	L463.838,359.711z"/>
<path d="M378.247,259.904c0,3.915,3.188,7.107,7.182,7.107c3.92,0,7.109-3.193,7.109-7.107v-7.183h-14.29L378.247,259.904
	L378.247,259.904z"/>
<path d="M378.247,281.302h-14.214v7.108c0,3.915,3.186,7.107,7.107,7.107c3.92,0,7.108-3.192,7.108-7.107L378.247,281.302
	L378.247,281.302z"/>
<path d="M378.247,331.281c0,3.84,3.188,7.032,7.182,7.032c3.92,0,7.109-3.192,7.109-7.032v-7.184h-14.29L378.247,331.281
	L378.247,331.281z"/>
<path d="M356.849,359.711c0,3.99,3.188,7.183,7.185,7.183c3.919,0,7.107-3.192,7.107-7.183v-7.032h-14.29L356.849,359.711
	L356.849,359.711z"/>
<path d="M335.451,374.076c0,3.841,3.187,7.032,7.183,7.032c3.92,0,7.11-3.191,7.11-7.032v-7.185h-14.292L335.451,374.076
	L335.451,374.076z"/>
<path d="M335.451,324.097h-14.29v7.184c0,3.84,3.259,7.032,7.184,7.032c3.92,0,7.108-3.192,7.108-7.032L335.451,324.097
	L335.451,324.097z"/>
<path d="M335.451,345.496c0,3.989,3.187,7.183,7.183,7.183c3.92,0,7.11-3.193,7.11-7.183v-7.185h-14.292L335.451,345.496
	L335.451,345.496z"/>
<path d="M356.849,288.41h-14.215v7.107c0,3.993,3.188,7.185,7.11,7.185c3.919,0,7.107-3.192,7.107-7.185L356.849,288.41
	L356.849,288.41z"/>
<path d="M321.158,281.302c0,3.915,3.189,7.108,7.185,7.108c3.92,0,7.108-3.193,7.108-7.108v-7.182h-14.29v7.182H321.158z"/>
<path d="M335.451,316.915c0,3.99,3.187,7.185,7.183,7.185c3.92,0,7.11-3.194,7.11-7.185v-7.032h-14.292L335.451,316.915
	L335.451,316.915z"/>
<path d="M342.632,259.904c0,3.915,3.188,7.107,7.111,7.107c3.919,0,7.107-3.193,7.107-7.107v-7.183h-14.215v7.183H342.632z"/>
<path d="M335.451,238.506h-14.29v7.108c0,3.916,3.259,7.109,7.184,7.109c3.92,0,7.108-3.193,7.108-7.109L335.451,238.506
	L335.451,238.506z"/>
<path d="M356.849,231.323c0,3.99,3.188,7.183,7.185,7.183c3.919,0,7.107-3.193,7.107-7.183v-7.107h-14.29L356.849,231.323
	L356.849,231.323z"/>
<path d="M342.632,217.035c3.922,0,7.111-3.194,7.111-7.11v-7.108h-14.291v7.108C335.451,213.841,338.638,217.035,342.632,217.035z"
	/>
<path d="M328.343,188.527v-7.108h-14.289v7.108c0,3.915,3.188,7.108,7.107,7.108C325.156,195.635,328.343,192.442,328.343,188.527z"
	/>
<path d="M585.193,302.7c0,7.83,6.388,14.213,14.214,14.213c7.832,0,14.218-6.385,14.218-14.213v-7.185h-28.434L585.193,302.7
	L585.193,302.7z"/>
<path d="M585.193,352.678c0,7.83,6.388,14.213,14.214,14.213c7.832,0,14.218-6.385,14.218-14.213v-7.183h-28.434L585.193,352.678
	L585.193,352.678z"/>
<path d="M542.397,366.893c0,7.831,6.385,14.215,14.213,14.215c7.831,0,14.218-6.386,14.218-14.215v-7.183h-28.433L542.397,366.893
	L542.397,366.893z"/>
<path d="M342.632,488.1h28.507c3.915,0,7.109-3.188,7.109-7.034v-21.398c0-3.994-3.194-7.182-7.109-7.182h-28.507
	c-3.989,0-7.182,3.188-7.182,7.182v21.398C335.451,484.912,338.643,488.1,342.632,488.1z"/>
</svg>
