<?xml version="1.0" encoding="utf-8"?>
<!-- Generator: Adobe Illustrator 14.0.0, SVG Export Plug-In . SVG Version: 6.00 Build 43363)  -->
<!DOCTYPE svg PUBLIC "-//W3C//DTD SVG 1.1//EN" "http://www.w3.org/Graphics/SVG/1.1/DTD/svg11.dtd">
<svg version="1.1" id="Ebene_1" xmlns="http://www.w3.org/2000/svg" xmlns:xlink="http://www.w3.org/1999/xlink" x="0px" y="0px"
	 width="841.891px" height="595.279px" viewBox="0 0 841.891 595.279" enable-background="new 0 0 841.891 595.279"
	 xml:space="preserve">
<path d="M420.869,257.809c-12.092,0-21.926,9.801-21.926,21.84s9.834,21.835,21.926,21.835c12.091,0,21.925-9.796,21.925-21.835
	C442.794,267.605,432.955,257.809,420.869,257.809z"/>
<path d="M437.779,307.122c-0.476,0-0.899-0.138-1.328-0.271c-4.601,2.634-9.91,4.157-15.582,4.157
	c-5.658,0-10.953-1.515-15.544-4.134c-0.396,0.105-0.786,0.248-1.22,0.248c-26.987,0-48.945,19.906-49.132,44.437
	c15.592,19.211,39.36,31.525,65.972,31.525c26.616,0,50.385-12.314,65.976-31.525C486.73,327.024,464.767,307.122,437.779,307.122z"
	/>
<path d="M420.945,213.144c-46.851,0-84.968,38.117-84.968,84.969c0,15.134,4.02,29.32,10.981,41.641
	c5.353-21.597,24.649-38.274,48.637-41.522c-3.867-5.209-6.177-11.624-6.177-18.582c0-17.296,14.11-31.364,31.45-31.364
	c17.339,0,31.449,14.073,31.449,31.364c0,6.948-2.305,13.363-6.162,18.563c24.059,3.2,43.413,19.901,48.779,41.541
	c6.958-12.32,10.982-26.507,10.982-41.641C505.918,251.261,467.801,213.144,420.945,213.144z"/>
<path d="M310.803,135.091c0.276,0.257,0.572,0.49,0.839,0.757c2.043,2.043,3.771,4.281,5.243,6.634
	c20.62-13.824,43.308-23.229,67.595-28.016c-0.619-2.7-0.98-5.496-0.98-8.382c0-0.386,0.048-0.762,0.057-1.143
	C357.369,109.965,332.939,120.09,310.803,135.091z"/>
<path d="M420.945,134.005c15.396,0,27.921-12.524,27.921-27.921s-12.524-27.926-27.921-27.926s-27.926,12.524-27.926,27.926
	C393.019,121.476,405.549,134.005,420.945,134.005z"/>
<path d="M458.39,106.079c0,2.881-0.357,5.677-0.977,8.377c24.273,4.786,46.971,14.196,67.591,28.03
	c1.472-2.357,3.2-4.591,5.248-6.639c0.271-0.271,0.562-0.5,0.843-0.762c-22.14-15.001-46.584-25.121-72.758-30.154
	C458.347,105.318,458.39,105.694,458.39,106.079z"/>
<path d="M536.986,182.071c5.272,5.271,12.287,8.177,19.744,8.177c7.458,0,14.468-2.905,19.744-8.177
	c5.277-5.276,8.187-12.291,8.187-19.744s-2.904-14.473-8.187-19.744c-5.271-5.276-12.281-8.182-19.744-8.182
	c-7.462,0-14.472,2.905-19.744,8.182C526.099,153.464,526.099,171.184,536.986,182.071z"/>
<path d="M583.209,188.804c-2.029,2.029-4.267,3.763-6.634,5.253c13.829,20.611,23.235,43.299,28.021,67.586
	c2.696-0.619,5.496-0.981,8.382-0.981c0.386,0,0.758,0.048,1.139,0.058c-5.029-26.188-15.153-50.618-30.15-72.748
	C583.709,188.247,583.48,188.537,583.209,188.804z"/>
<path d="M612.977,270.187c-15.396,0-27.926,12.524-27.926,27.926c0,15.4,12.529,27.921,27.926,27.921s27.921-12.525,27.921-27.921
	C640.898,282.716,628.379,270.187,612.977,270.187z"/>
<path d="M556.735,405.972c-7.457,0-14.472,2.905-19.744,8.182c-5.271,5.276-8.182,12.286-8.182,19.744s2.905,14.468,8.182,19.744
	c5.272,5.276,12.287,8.187,19.744,8.187c7.453,0,14.468-2.905,19.744-8.187c5.277-5.271,8.187-12.286,8.187-19.744
	s-2.905-14.473-8.187-19.744C571.203,408.882,564.193,405.972,556.735,405.972z"/>
<path d="M420.945,462.219c-15.396,0-27.926,12.529-27.926,27.926s12.524,27.921,27.926,27.921c15.4,0,27.921-12.524,27.921-27.921
	S436.342,462.219,420.945,462.219z"/>
<path d="M383.495,490.145c0-2.882,0.357-5.682,0.98-8.382c-24.287-4.786-46.975-14.187-67.585-28.017
	c-1.491,2.367-3.225,4.605-5.248,6.629c-0.267,0.271-0.562,0.496-0.839,0.758c22.131,14.996,46.565,25.121,72.753,30.149
	C383.543,490.902,383.495,490.531,383.495,490.145z"/>
<path d="M258.681,407.419c2.028-2.028,4.262-3.762,6.634-5.252c-13.83-20.621-23.23-43.317-28.012-67.591
	c-2.7,0.624-5.5,0.981-8.387,0.981c-0.386,0-0.762-0.048-1.143-0.058c5.029,26.179,15.153,50.608,30.154,72.748
	C258.181,407.977,258.415,407.687,258.681,407.419z"/>
<path d="M531.129,461.171c-0.29-0.271-0.595-0.515-0.876-0.796c-2.02-2.019-3.743-4.242-5.229-6.596
	c-20.668,13.849-43.394,23.179-67.623,27.931c0.628,2.715,0.99,5.529,0.99,8.435c0,0.371-0.048,0.729-0.058,1.095
	C484.464,486.235,508.937,476.2,531.129,461.171z"/>
<path d="M612.977,335.558c-2.881,0-5.677-0.357-8.377-0.977c-4.786,24.264-14.187,46.955-28.021,67.586
	c2.366,1.49,4.6,3.224,6.629,5.252c0.271,0.271,0.5,0.567,0.767,0.844c15.001-22.149,25.116-46.594,30.146-72.758
	C613.735,335.515,613.363,335.558,612.977,335.558z"/>
<path d="M285.159,461.828c7.458,0,14.473-2.905,19.744-8.187c5.272-5.271,8.177-12.282,8.177-19.744
	c0-7.463-2.904-14.473-8.177-19.744c-5.276-5.271-12.291-8.182-19.744-8.182c-7.457,0-14.472,2.905-19.744,8.182
	c-5.276,5.271-8.182,12.286-8.182,19.744s2.905,14.468,8.182,19.744C270.687,458.923,277.702,461.828,285.159,461.828z"/>
<path d="M228.913,260.661c2.886,0,5.681,0.362,8.381,0.981c4.781-24.282,14.187-46.97,28.012-67.586
	c-2.371-1.49-4.605-3.219-6.629-5.248c-0.267-0.267-0.5-0.562-0.757-0.838c-14.997,22.135-25.126,46.57-30.15,72.753
	C228.155,260.709,228.527,260.661,228.913,260.661z"/>
<path d="M256.839,298.113c0-15.396-12.525-27.926-27.922-27.926c-15.396,0-27.926,12.524-27.926,27.926
	c0,15.4,12.525,27.921,27.926,27.921C244.308,326.033,256.839,313.508,256.839,298.113z"/>
<path d="M285.159,190.252c7.458,0,14.473-2.905,19.744-8.177c10.887-10.892,10.887-28.607,0-39.488
	c-5.276-5.277-12.291-8.182-19.744-8.182c-7.452,0-14.472,2.904-19.744,8.182c-5.276,5.271-8.182,12.286-8.182,19.744
	c0,7.457,2.905,14.473,8.182,19.744C270.687,187.347,277.697,190.252,285.159,190.252z"/>
</svg>
