<?xml version="1.0" encoding="utf-8"?>
<!-- Generator: Adobe Illustrator 14.0.0, SVG Export Plug-In . SVG Version: 6.00 Build 43363)  -->
<!DOCTYPE svg PUBLIC "-//W3C//DTD SVG 1.1//EN" "http://www.w3.org/Graphics/SVG/1.1/DTD/svg11.dtd">
<svg version="1.1" id="Ebene_1" xmlns="http://www.w3.org/2000/svg" xmlns:xlink="http://www.w3.org/1999/xlink" x="0px" y="0px"
	 width="543.553px" height="554.848px" viewBox="132.487 0 543.553 554.848" enable-background="new 132.487 0 543.553 554.848"
	 xml:space="preserve">
<g>
	<path d="M350.852,69.215c-0.044-12.686-2.588-20.889-8.017-25.773c-7.369-6.633-17.785-5.538-29.848-4.266
		c-2.926,0.309-6.006,0.631-9.205,0.86c-5.811-0.061-83.67-0.134-128.196,47.201c-50.699,53.894-42.859,120.958-42.409,124.454l0,0
		l0.001,0.004l0.008,0.069c0.004,0.029,0.015,0.056,0.02,0.084c2.928,24.136,26.235,25.004,36.456,25.004
		c0.375,0,0.726-0.002,1.064-0.002c0.713,0.021,3.241,0.095,7.214,0.095c21.937,0,87.267-2.261,126.4-27.525
		c0.117-0.076,0.238-0.141,0.35-0.229c3.338-2.15,6.521-4.533,9.525-7.127C357.651,164.145,351.235,74.093,350.852,69.215z
		 M237.067,103.832c-7.568-11.33-17.16-21.168-28.296-29.02c7.535-4.35,15.43-8.037,23.6-11.025
		c8.068,6.281,15.185,13.696,21.129,22.015C247.915,92.066,242.296,98.323,237.067,103.832z M260.897,77.528
		c-4.837-6.491-10.359-12.443-16.47-17.753c13.335-3.868,26.996-6.508,40.812-7.886C278.487,58.186,270.475,66.852,260.897,77.528z
		 M199.101,81.115c0.334,0.383,0.723,0.716,1.151,0.99c11.649,7.725,21.541,17.813,29.034,29.612
		c-1.098,1.054-2.16,2.041-3.182,2.955c-6.032,5.07-12.438,9.677-19.166,13.779c0.044-1.029-0.21-2.053-0.732-2.943
		c-6.796-10.711-15.39-20.168-25.403-27.957c0.868-0.975,1.745-1.946,2.653-2.911C188.219,89.633,193.458,85.104,199.101,81.115z
		 M179.11,147.395c-4.967-7.879-11.103-14.961-18.195-21c3.748-7.191,8.103-14.047,13.017-20.498
		c9.029,6.994,16.796,15.479,22.962,25.094c0.605,1.006,1.526,1.785,2.62,2.215C192.875,137.473,185.884,142.112,179.11,147.395z
		 M156.112,136.549c5.698,5.238,10.626,11.257,14.64,17.873c-12.354,10.689-21.57,24.537-26.659,40.063
		c-0.192,0.613-0.42,1.215-0.679,1.803C143.828,175.752,148.137,155.479,156.112,136.549z M169.04,226.012
		c-16.965-0.328-22.725-5.086-24.572-12.483c4.432-4.482,7.826-9.883,9.94-15.82c8.931-28.584,33.232-44.104,54.673-57.797
		c8.506-5.094,16.605-10.838,24.224-17.182c10.643-10.177,20.769-20.876,30.339-32.064c14.284-16.023,33.793-37.901,41.337-39.888
		c3.169-0.237,6.229-0.55,9.142-0.857c9.883-1.039,17.692-1.861,21.486,1.551c2.867,2.58,4.348,8.411,4.432,17.288
		c-1.012,3.213-2.148,7.202-3.453,11.804c-7.213,25.417-20.635,72.728-44.645,91.564c-17.336,13.603-53.88,26.867-83.241,37.525
		C187.298,217.422,174.818,222.053,169.04,226.012z M292.108,204.069c-10.163,5.305-20.909,9.411-32.019,12.239
		c-2.392-2.524-6.349-6.743-9.918-10.725c10.57-4.252,20.784-8.727,29.726-13.371C283.741,196.393,287.818,200.35,292.108,204.069
		L292.108,204.069z M212.388,219.808c8.626-3.133,17.856-6.489,27.076-10.022c2.637,3.031,5.77,6.455,8.5,9.391
		c-16.911,3.41-34.053,5.547-51.284,6.392C201.667,223.699,207.055,221.744,212.388,219.808z M307.11,193.924
		c-1.689,1.478-3.474,2.886-5.354,4.229c-4.561-3.957-9.172-8.228-12.202-11.353c3.136-1.883,6.157-3.944,9.056-6.176
		c4.721-3.795,8.967-8.149,12.641-12.967c3.263,2.959,6.731,5.682,10.383,8.146C317.825,182.604,312.919,188.727,307.11,193.924
		L307.11,193.924z M326.544,166.057c-3.196-2.212-6.213-4.673-9.02-7.361c9.586-15.209,16.669-33.621,22.064-50.363
		C338.132,126.297,334.591,147.72,326.544,166.057z"/>
</g>
<g>
	<path d="M427.092,482.179c8.131,0.743,16.264,1.481,24.576,2.63c-1.818,10.078-2.828,19.789-3.65,29.907
		c-0.434,5.557,4.143,10.329,10.146,9.588c4.199-0.422,8.398-0.84,12.596-1.261c0,0,7.992-0.659,10.063-2.563
		c0.154,5.781-3.049,20.378-3.721,22.141c-1.875,6.69,4.34,15.115,11.867,11.253c38.318-21.081,62.221-59.093,65.826-102.144
		c17.857,6.128,37.451,4.168,55.633-2.033c25.037-8.301,51.318-22.521,62.709-47.126c2.645-6.061-3.289-11.687-9.068-11.53
		c-7.586,0.476-14.947,0.362-22.715,0.436c3.135-8.229,6.045-15.872,8.186-24.145c0.756-3.75-3.051-7.895-6.621-8.24
		c-9.529-0.604-19.285-0.615-28.633-0.813c3.482-11.797,4.979-23.681,4.713-36.233c-0.197-4.786-2.381-9.656-7.936-10.091
		c-7.361-0.11-14.725-0.223-21.904,0.071c1.289-6.913,2.98-14.01,4.268-20.924c1.021-5.332-3.777-9.517-8.521-10.312
		c-12.428-2.717-21.553,10.637-29.25,18.475c-10.58,10.105-21.385,20.8-29.652,32.794c-11.463,16.838-17.227,35.508-16.035,54.472
		c-15.199-7.81-34.527-7.431-51.041-2.949c-29.193,7.727-46.928,26.888-66.545,48.357c-5.627,5.935,0.322,15.94,7.461,16.64
		c8.131,0.741,16.711,0.308,24.658,0.644c-0.697,7.138-2.209,14.638-4.309,21.918C418.217,475.435,421.354,481.341,427.092,482.179z
		 M457.273,403.819c17.186-6.243,39.438-9.885,54.875,1.717c0.588,0.226,2.311,1.892,2.896,2.113
		c5.938,5.625,18.434,1.971,16.055-7.685c-5.125-20.126-2.746-38.739,9.16-56.753c6.158-9.098,13.268-17.158,21.146-24.591
		c1.441-1.134,4.813-5.57,8.365-9.602c-0.752,3.751-1.689,7.096-2.041,10.664c-1.063,6.326,5.318,10.776,10.92,10.216
		c7.402-0.881,14.984-1.357,22.35-1.247c-0.461,10.932-2.504,21.597-5.541,32.218c-1.383,4.521,0.939,10.79,6.902,11.043
		c10.34,0.236,20.32-0.337,30.66-0.101c-2.32,7.865-5.818,15.281-8.729,22.924c-1.566,4.116,1.16,10.202,5.947,10.008
		c5.963,0.25,12.148-0.084,18.111,0.166c-24.311,24.061-67.105,42.761-96.385,24.203c-4.844-3.188-14.094-0.992-14.205,6.369
		c0.34,34.457-13.193,67.334-39.406,89.322c0.66-6.145,0.322-12.331-2.309-16.025c-5.629-8.201-18.223-6.938-29.057-5.009
		c0.967-8.72,2.156-18.024,4.113-26.702c0.799-4.746-3.191-9.294-7.754-9.685c-7.727-0.924-15.857-1.665-23.582-2.588
		c1.734-8.09,3.063-15.997,3.217-24.354c0.393-4.562-2.604-9.068-7.754-9.683c-4.156-0.573-8.313-1.147-12.65-2.128
		C431.943,419.074,442.703,409.374,457.273,403.819z"/>
	<path d="M502.762,448.74c23.539-10.555,45.834-29.324,66.559-43.979c9.238-6.578-1.596-18.781-10.791-13.196
		c-21.271,13.438-46.643,29.688-62.205,49.338C492.77,444.934,498.297,450.74,502.762,448.74z"/>
</g>
<g>
	<path d="M673.709,91.761c-3.68-4.587-10.4-5.339-14.975-1.666c-0.629,0.494-31.684,25.389-75.375,62.884l16.375-16.367
		c29.783-24.272,49.234-39.224,49.738-39.617c4.088-3.131,5.068-8.575,2.904-13.033l1.764-1.764c4.168-4.16,4.168-10.899,0-15.062
		c-2.281-2.293-5.338-3.193-8.342-2.966l10.211-10.215c4.166-4.163,4.166-10.9,0-15.063c-4.156-4.161-10.9-4.161-15.057,0
		l-94.879,94.874c56.127-60.723,96.969-107.442,97.629-108.206c3.859-4.439,3.414-11.166-1.029-15.029
		c-4.42-3.86-11.152-3.41-15.029,1.022c-0.223,0.259-5.18,5.924-13.742,15.591c-4.188-3.563-10.418-3.489-14.371,0.462
		L494.195,132.936c55.789-63.646,96.156-114.903,96.779-115.706c3.648-4.623,2.834-11.318-1.789-14.949
		c-4.643-3.649-11.318-2.824-14.957,1.794c-0.689,0.894-50.77,64.448-116.34,137.758c-3.785-1.266-7.313-2.028-10.352-2.028
		c-5.494,0-8.771,2.139-10.561,3.92c-0.006,0.006-0.02,0.02-0.025,0.03L300.162,280.539c-4.865,4.857-4.797,12.762-1.484,22.014
		c-79.602,72.298-152.257,129.541-153.206,130.281c-4.63,3.631-5.431,10.339-1.8,14.968c2.096,2.67,5.228,4.063,8.378,4.063
		c2.312,0,4.625-0.739,6.578-2.275c0.795-0.622,52.071-41.027,115.736-96.82L168.992,458.149c-4.162,4.155-4.162,10.9,0,15.056
		c1.098,1.099,2.385,1.861,3.749,2.379c0.437,1.104,0.956,2.183,1.775,3.113c2.108,2.416,5.062,3.649,8.025,3.649
		c2.486,0,4.982-0.863,6.998-2.621c0.771-0.658,47.484-41.502,108.207-97.623L175.317,504.541c-4.161,4.16-4.161,10.898,0,15.059
		c2.079,2.086,4.803,3.121,7.534,3.121c2.72,0,5.443-1.035,7.527-3.121l13.348-13.346c-15.413,19.223-24.53,31.064-24.832,31.466
		c-3.577,4.667-2.7,11.349,1.966,14.931c1.931,1.48,4.217,2.197,6.474,2.197c3.199,0,6.362-1.438,8.458-4.176
		c0.389-0.513,15.338-19.938,39.611-49.731l53.996-54.001c-37.498,43.688-62.394,74.746-62.879,75.367
		c-3.676,4.588-2.923,11.303,1.67,14.976c1.967,1.573,4.309,2.332,6.645,2.332c3.127,0,6.223-1.383,8.33-4.001
		c0.771-0.964,59.967-74.832,133.77-155.341c3.877,1.324,7.477,2.103,10.576,2.103c5.492,0,8.773-2.135,10.566-3.922
		l136.789-136.795c0.008-0.008,0.021-0.013,0.033-0.025c3.15-3.149,5.549-9.062,2.307-19.739
		C609.328,157,671.164,107.44,672.039,106.737C676.639,103.06,677.377,96.354,673.709,91.761z M390.543,370.918
		c-0.697,0.691-2.193,0.803-3.035,0.803c-9.006,0-28.855-10.733-49.367-31.251c-26.807-26.804-34.174-48.671-30.443-52.396
		l126.422-126.406c0.887,3.409,2.383,7.343,4.695,11.892c6.006,11.813,16.16,25.172,28.619,37.631
		c17.459,17.459,35.947,29.747,49.537,33.304L390.543,370.918z"/>
	<path d="M422.293,255.473c-11.676-11.677-21.141-24.081-26.65-34.931c-1.346-2.621-4.553-3.669-7.164-2.336
		c-2.625,1.331-3.668,4.537-2.338,7.157c6.006,11.817,16.172,25.186,28.619,37.633c8.137,8.131,16.848,15.448,25.184,21.149
		c0.918,0.637,1.961,0.933,2.996,0.933c1.695,0,3.367-0.813,4.408-2.323c1.658-2.43,1.027-5.739-1.395-7.399
		C438.154,270.03,429.975,263.147,422.293,255.473z"/>
	<path d="M410.063,267.711c-11.678-11.677-21.143-24.083-26.652-34.932c-1.338-2.627-4.531-3.663-7.164-2.338
		c-2.625,1.333-3.668,4.539-2.336,7.164c6.006,11.817,16.172,25.186,28.625,37.633c8.119,8.117,16.824,15.429,25.189,21.151
		c0.92,0.629,1.967,0.933,3.002,0.933c1.701,0,3.371-0.815,4.402-2.325c1.67-2.436,1.041-5.745-1.387-7.397
		C425.91,282.246,417.725,275.369,410.063,267.711z"/>
	<path d="M396.615,281.157c-11.67-11.686-21.141-24.076-26.652-34.92c-1.344-2.633-4.561-3.664-7.162-2.338
		c-2.613,1.34-3.67,4.539-2.332,7.164c6.02,11.813,16.178,25.178,28.627,37.62c8.154,8.155,16.865,15.48,25.184,21.171
		c0.918,0.629,1.967,0.925,3.002,0.925c1.693,0,3.373-0.814,4.396-2.318c1.656-2.427,1.049-5.746-1.395-7.403
		C412.496,295.737,404.316,288.857,396.615,281.157z"/>
</g>
</svg>
